<?xml version="1.0" encoding="utf-8"?>
<!-- Generator: Adobe Illustrator 25.2.1, SVG Export Plug-In . SVG Version: 6.00 Build 0)  -->
<svg version="1.1" id="Layer_1" xmlns="http://www.w3.org/2000/svg" xmlns:xlink="http://www.w3.org/1999/xlink" x="0px" y="0px"
	 viewBox="0 0 670.56 384.06" style="enable-background:new 0 0 670.56 384.06;" xml:space="preserve">
<style type="text/css">
	.st0{fill:#353535;}
</style>
<g>
	<g>
		<path class="st0" d="M204.53,69.09c0,0-6.22-1.77-6.82-10.6c-0.04-0.64-0.6-1.13-1.24-1.07l0,0c-0.34,0.03-0.65,0.21-0.84,0.49
			c-0.85,1.25-2.93,5.04-1.19,9.9L204.53,69.09z"/>
		<path class="st0" d="M146.48,84.12c0,0-6.67,2.06-12.42-5.58c-0.42-0.56-1.21-0.67-1.75-0.24l0,0c-0.29,0.23-0.46,0.57-0.47,0.94
			c-0.03,1.63,0.31,6.29,4.76,9.67L146.48,84.12z"/>
		<path class="st0" d="M261.98,98.27c-0.52,2.7-3.03,4.33-5.34,5.41c-6.81,3.49-14.96,1.41-20.93-2.73
			c-2.62-1.81-4.86-4.1-6.95-6.46c-6.18-6.92-11.2-14.84-18.64-20.39c-14.67-10.78-37.47-6.62-49.94,5.73
			c-3.84,4.26-8.47,9.07-9.05,14.99c-0.12,2.76,1.26,5.05,2.94,7.12c0.98,1.18,0.82,2.93-0.36,3.91c-1.36,1.16-3.54,0.67-4.29-0.94
			c-3.63-6.59-0.98-13.87,3.06-19.38c3.69-5.18,8.08-10.01,13.65-13.1c13.55-7.86,31.98-9.43,45.05,0.23
			c7.54,5.66,12.77,13.76,18.91,20.66c3.91,4.58,8.8,8.52,14.8,9.6c4.11,0.7,9.02,0.26,11.91-3.01c0.99-1.08,1.73-2.2,2.99-3.05
			C260.77,96.13,262.24,97.08,261.98,98.27L261.98,98.27z"/>
		<path class="st0" d="M190.81,68.31c-11.05,0.03-19.6,9.74-22.87,19.61c-2.4,6.95-1.84,14.24,1.56,20.72
			c2.73,5.2,8.14,9.73,14.22,8.89c3.99-0.92,6.07-4.41,8.56-7.44c1.47-1.8,4.4-0.5,4.09,1.77c-0.43,3.29-2.91,6.31-5.95,7.71
			c-2.99,1.35-6.36,1.38-9.53,1c-9.29-1.38-14.85-10.47-16.28-19.03c-2.04-12.1,4.81-25.75,15.08-32.19
			c3.29-2.04,7.13-3.33,11.09-3.44C192.4,65.92,192.43,68.27,190.81,68.31L190.81,68.31z"/>
		<path class="st0" d="M151.04,92.66c-4.12,8.43-9.27,16.52-16.31,22.84c-9.12,8.32-21.94,12.48-33.51,6.51
			c-6-2.95-10.01-8.95-8.59-15.82c1.31-6.61,7.05-12.05,14.01-12.3c2.83-0.11,5.72,0.92,7.92,2.63c2.17,1.68,3.74,3.88,4.54,6.31
			c0.34,1.03-0.22,2.15-1.26,2.49c-0.7,0.23-1.43,0.04-1.95-0.41c-0.89-0.71-1.65-1.44-2.41-2.12c-3.45-3.19-7.9-6.09-12.48-3.11
			c-3.36,2.09-5.62,6.21-5.35,10.2c0.21,4.22,3.3,7.55,6.97,9.46c12.82,6.8,26.6-0.37,35.32-10.44c4.57-5.11,8.19-11.01,11.26-17.12
			C149.81,90.58,151.61,91.42,151.04,92.66L151.04,92.66z"/>
		<path class="st0" d="M198.04,69.02c-9.55-2.26-20.35,1.18-24.21,10.77c-2.33,5.71-1.69,13.22,2.08,18.08
			c1.89,2.31,4.87,3.46,7.78,2.9c2.07-0.4,4.21-1.49,5.28-3.34c1.64-3.22-0.59-6.07-1.82-9.17c-0.49-1.19,0.07-2.55,1.26-3.04
			c2.49-1.04,5.14,2.95,5.72,5.18c0.99,3.19-0.28,6.71-2.53,9.01c-3.18,3.7-8.57,5.42-13.15,3.48c-3.55-1.43-5.9-4.79-7.02-8.27
			c-2.91-8.47-0.42-18.55,6.94-23.94c5.69-4.32,13.27-5.27,20.13-4.02C200.09,66.99,199.64,69.32,198.04,69.02L198.04,69.02z"/>
		<path class="st0" d="M159.95,80.02c-14.6,5.28-28.94,11.63-42.2,19.75c-13.3,8.18-26.67,17.24-42,21.29
			c-8.81,2.31-18.47,2.59-27.08-0.77c-9.08-3.46-15.24-11.86-15.33-21.63c-0.16-9.74,4.99-18.67,14.1-22.52
			c4.29-1.97,9.2-2.74,13.85-1.71c4.72,1.02,9.24,3.21,12.45,6.98c1.76,2.03,3.1,4.59,3.11,7.45c0.02,3.55-2.16,6.97-5.62,8.21
			c-3.54,1.44-5.79-3.55-2.37-5.25c0.38-0.17,0.78-0.25,1.17-0.25c1.13-0.36,1.94-1.72,2.09-2.91c0.22-1.66-0.52-3.4-1.5-4.84
			c-2.29-3.29-5.85-6.07-9.86-6.93c-6.22-1.4-12.85,0.9-17.73,4.8c-4.87,4.11-7.4,10.61-7.31,16.93
			c0.21,11.79,8.86,19.43,20.03,21.31c28.5,4.77,53.97-20.78,78.55-31.8c8.11-3.91,16.36-7.41,24.83-10.47
			c0.65-0.23,1.37,0.11,1.6,0.76C160.97,79.07,160.61,79.8,159.95,80.02L159.95,80.02z"/>
		<path class="st0" d="M62.67,121.69c0,0-11.01,2.44-16.05,9.92c-5.04,7.48-2.28,14.32,2.43,15.45c4.71,1.13,6.79-1.34,7.17-2.28
			c0.55-1.36-0.75-3.04-2.55-2.13c-1.42,0.71-1.74,3.04-4.54,2.1c-2.19-0.74-1.76-6.06,2.07-6.58s10.14-0.42,13.61-5.38
			c3.47-4.95,7.1-10.89,10.48-12.51C71.1,121.13,66.9,121.64,62.67,121.69z"/>
		<path class="st0" d="M54.61,120.86c-11.54-5.95-14.14-23.23-5.98-31.59c0,0,0.19,5.63,5.57,10.23c8.09,6.91-4.67,15.38,3.64,21.42
			L54.61,120.86z"/>
		<path class="st0" d="M35.22,103.9c0,0-8.47-11.81-22.84-9.54C1.96,96-2.14,104.58,1.07,111.73c2.32,5.17,5.31,5.09,6.42,4.67
			c1.6-0.6,1.98-3.34-0.54-4.27c-1.74-0.64-4.12-2.05-4.29-5.37c-0.13-2.7,4.49-5.94,7.98-3.07c3.49,2.88,6.89,7.89,16.73,7.48
			c7.03-0.29,9.68-0.43,12.77,1.64C36.08,109.9,35.8,105.17,35.22,103.9z M17.82,105.24c2.84,1.29,5.89,1.88,8.87,2.72
			C23.6,107.94,20.26,107.25,17.82,105.24z M27.09,101.18c-4.79-2.74-10.24-4.74-15.84-4.29c6.34-1.67,13.23,1.27,17.92,5.52
			C28.45,102.01,27.78,101.58,27.09,101.18z"/>
		<path class="st0" d="M34.61,96.18c-0.27-6.58,0.93-9.3-0.16-13.58c-1.8-7.07-5.88-13.19-9.52-16.89c0,0,1.79,7.99-0.94,11.92
			c-3.21,4.62-6.96,10.56-1.43,15.98c4.95,4.85,7.47,4.98,12.54,10.13L34.61,96.18z M32.77,88.29c-0.45-4.04-1.7-8.11-2.67-12.19
			C31.92,80.05,33.24,84.53,32.77,88.29z"/>
		<path class="st0" d="M247.22,95.78c-3.19,6.13-9.23,11.07-16.46,10.81c-7-0.16-13.45-4.75-16.43-11
			C207.94,82,218.9,68.3,231.13,63c14.99-6.72,32.93-1.12,44.64,9.55c8.53,7.7,12.8,19.38,12.28,30.75
			c-0.09,4.7-1.05,9.44-3.17,13.67c-6.06,12.26-19.96,18.88-33.23,18.85c-8.1-0.02-16.1-2.37-23.19-6.28
			c-4.76-2.72-9.19-6.41-12.1-11.11c-0.79-1.3-0.38-3.01,0.93-3.8c1.2-0.73,2.73-0.44,3.58,0.62c1.58,1.9,3.06,3.83,4.66,5.7
			c5.96,6.93,13.08,11.62,22.33,12.66c14.98,2.07,31.75-6.21,36.53-21.07c1.19-3.61,1.5-7.44,1.47-11.23
			c0.04-10.19-4.02-20.27-11.6-27.16c-9.28-8.4-22.48-13.58-35.03-11.37c-9.79,1.84-19.12,8.29-23.15,17.54
			c-1.89,4.57-1.93,9.84,0.24,14.3c3.1,6.6,10.81,11.15,18.08,9.36c4.85-1.13,8.56-4.95,10.87-9.26
			C246,93.46,247.89,94.48,247.22,95.78L247.22,95.78z"/>
		<path class="st0" d="M272.68,130.04c-9.72,5.52-23.33,3.13-29.99-6.17c-0.89-1.26-0.6-3.01,0.67-3.9c1.5-1.1,3.74-0.35,4.28,1.42
			c0.63,1.95,2.05,3.78,3.83,5.24c5.55,4.49,14.03,5.4,20.28,1.77C272.83,127.79,273.76,129.39,272.68,130.04L272.68,130.04z"/>
		<path class="st0" d="M244.71,97.77c0,0,6.29-2.97,7.59-10.26s-3.75-13.39-7.95-15.19c-3.77-1.62-8.29-1.22-10.47,2.43
			c-0.41,0.69-0.12,1.59,0.62,1.9l0,0c0.64,0.27,1.39,0.01,1.68-0.62c1.46-3.12,3.82-3.74,5.73-3c2.98,1.15,3.47,5.26,0.94,7.21
			C234.7,86.51,242.91,91.48,244.71,97.77z"/>
		<path class="st0" d="M248.52,62.52c-6.29-1.34-12.86-5.64-13.67-12.5c-0.91-8.53,4.67-16.74,12.54-19.78
			c6.79-2.72,15.7-2.74,21.11,2.83c2.77,2.8,4.62,6.59,4.63,10.65c-0.07,4.22-2.63,8.03-5.85,10.58c-2.92,2.22-6.25-1.85-3.51-4.27
			c2.55-1.54,4.81-3.62,5.35-6.67c0.9-3.75-1.59-7.51-4.58-9.67c-4.65-3.17-11.03-2.87-16.16-0.96c-4.59,1.71-8.37,5.32-10.08,9.91
			c-1.41,3.66-1.78,8.06,0.56,11.39c2.29,3.33,6.24,5.25,10.1,6.12C250.55,60.46,250.12,62.79,248.52,62.52L248.52,62.52z"/>
		<path class="st0" d="M283.33,86.74c-57.26-22.17-21.88-79.72,13.52-67.49c8.88,2.9,13.78,11.74,13.88,20.75
			c0.06,6.28-1.77,12.24-7.41,15.7c-3.43,2.2-7.37,3.38-11.48,3.54c-7.02,0.24-12.44-4.5-14.6-10.96c-1.09-3.5,3.86-5.25,5.21-1.85
			c0.41,1.64,0.97,3.25,1.86,4.59c4.35,6.63,13.92,5.46,19.37,0.56c3.24-2.79,4.21-7.4,4.27-11.56c0.13-7.89-4.16-15.94-11.93-18.47
			c-16.61-6.22-35.22,6.29-39.54,22.69c-4.2,15.25,4.9,28.22,17.84,35.54c3.15,1.84,6.47,3.39,9.88,4.73
			C285.67,85.1,284.84,87.29,283.33,86.74L283.33,86.74z"/>
		<path class="st0" d="M288.15,56.22c3.44-5.84,9.45-10.21,16.45-9.95c9.45,0.31,17.14,6.12,19.96,15.14
			c3.65,10.67-1.11,24.94-13.34,26.86c-4.6,0.68-9.83,0.37-13.6-2.72c-4.28-3.56-4.17-9.58-2.34-14.36c1.37-3.4,6.31-1.61,5.2,1.88
			c-1.48,3.08-2.49,6.74,0.01,9.4c2.38,2.58,6.72,3.36,10.22,2.72c8.12-1.05,12.62-9.5,12.32-17.14
			c-0.14-6.88-3.73-13.88-9.94-17.11c-4.33-2.22-9.65-3.13-14.25-1.27c-3.69,1.44-6.6,4.41-8.62,7.8
			C289.37,58.81,287.36,57.6,288.15,56.22L288.15,56.22z"/>
		<path class="st0" d="M302.25,84.84c5.66,5.88,12.69,10,19.6,14.33c3.57,2.26,7.07,4.73,9.94,7.86c0.38,0.38,1.41,1.4,1.79,1.77
			c2.68,2.57,4.42,6.33,4,10.07c-0.24,2.17-3.16,2.76-4.23,0.89c-1.46-2.74-2.15-5.71-3.21-8.63c-0.98-2.51-3-4.31-5-6.12
			c-1.5-1.32-3.11-2.53-4.75-3.69c-6.71-4.68-13.77-9.15-19.7-14.92c-0.44-0.42-0.46-1.12-0.04-1.56
			C301.09,84.39,301.82,84.39,302.25,84.84L302.25,84.84z"/>
		<path class="st0" d="M240.36,57.41c-10.99-8.08-7.75-13.73-10.75-22.88c-3-9.15-11.62-13.99-16.74-14.49
			c-5.12-0.5-5.45,2.85-3.67,3c1.77,0.15,5.07-1.37,7.72,0.97s1.75,7.17,2.65,12.62c0.9,5.45,8.85,10.39,11.99,14.24
			c3.15,3.85,6.1,6.8,6.1,6.8c-5.2-2.15-3.7-2.7-11.54-8.35c-7.85-5.65-16.69-7.8-20.74-2.1c-4.05,5.7,1.05,8.8,1.05,8.8
			c2.7-11.09,17.79-3.35,25.04,0.6c7.25,3.95,12.69,4.54,12.69,4.54l2.03-0.02L240.36,57.41z M222.34,27.04
			c4.49,3.71,6.37,9.79,7.2,15.37C227.69,37.15,225.97,31.37,222.34,27.04z"/>
		<path class="st0" d="M309.14,39.99c0,0,2.95-5.5,8.65-7.3c5.7-1.8,5.85-4.75,7.55-7.6s4.8-4.75,5-6.25
			c0.2-1.5-7.7,1.7-20.09,15.99c0,0,1.24-4.79,3.05-11.29c3.05-10.98-2.69-22.79-12.24-23.49c-11.22-0.82-7.44,7.24-5.36,5.52
			c1.84-1.52,1.27-4.18,4.52-4.1c4.95,0.11,9.43,7.27,5.78,9.97c-3.58,2.64-4.01,6.32-1.11,12.75
			C307.77,30.61,309.04,31.59,309.14,39.99z"/>
		<path class="st0" d="M325.39,73.71c-0.26,2.54-0.74,7.05,1.81,8.45c0.28,0.15,0.4,0.48,0.29,0.78l0,0c-0.11,0.3-0.41,0.4-0.73,0.4
			c-1.64,0.02-5.94-0.42-5.46-6.69L325.39,73.71z"/>
	</g>
	<g>
		<path class="st0" d="M466.03,69.09c0,0,6.22-1.77,6.82-10.6c0.04-0.64,0.6-1.13,1.24-1.07l0,0c0.34,0.03,0.65,0.21,0.84,0.49
			c0.85,1.25,2.93,5.04,1.19,9.9L466.03,69.09z"/>
		<path class="st0" d="M524.08,84.12c0,0,6.67,2.06,12.42-5.58c0.42-0.56,1.21-0.67,1.75-0.24l0,0c0.29,0.23,0.46,0.57,0.47,0.94
			c0.03,1.63-0.31,6.29-4.76,9.67L524.08,84.12z"/>
		<path class="st0" d="M410.91,96.94c1.74,1.25,2.63,3.13,4.38,4.35c3.05,1.93,6.87,2.25,10.39,1.62c6.01-1.09,10.89-5.02,14.8-9.6
			c4.06-4.6,7.74-9.62,11.97-14.24c8.86-10.25,20.73-14.53,34.12-12.73c9.38,1.34,18.68,5.13,25.48,11.91
			c2.16,2.29,4.21,4.67,6.05,7.28c4.03,5.51,6.69,12.8,3.06,19.38c-0.67,1.41-2.38,1.99-3.78,1.28c-1.58-0.78-2-2.91-0.87-4.25
			c1.68-2.06,3.06-4.36,2.94-7.12c-0.2-2.86-1.62-5.6-3.24-7.98c-3.49-4.87-7.59-9.48-12.88-12.52
			c-10.32-6.05-23.45-8.48-34.91-4.42c-5.78,2.01-10.61,5.82-14.67,10.36c-4.14,4.53-7.8,9.53-11.94,14.23
			c-3.12,3.58-6.73,6.9-11.13,8.84c-4.47,2.02-9.54,2.87-14.39,1.33c-3.09-1.17-6.93-2.8-7.7-6.38
			C408.36,96.95,409.9,96.09,410.91,96.94L410.91,96.94z"/>
		<path class="st0" d="M479.78,65.9c17.34,0.6,30.29,22.48,25.54,38.44c-1.93,7.53-7.43,15.04-15.64,16.22
			c-4.24,0.54-9.1,0.22-12.36-2.91c-1.66-1.56-2.84-3.62-3.13-5.8c-0.3-2.31,2.64-3.55,4.09-1.77c2.49,3.03,4.57,6.52,8.56,7.44
			c2.46,0.44,4.98-0.3,7.18-1.46c4.57-2.46,7.6-7.38,9.02-12.36c3.72-11.86-2.9-26.2-13.27-32.54c-3.02-1.81-6.5-2.88-10.01-2.85
			C478.15,68.28,478.16,65.91,479.78,65.9L479.78,65.9z"/>
		<path class="st0" d="M521.35,91.77c4.08,8.12,9.18,15.92,16.09,21.9c8.43,7.43,20.09,11.23,30.5,5.66
			c5.96-3.06,8.9-9.08,5.66-15.28c-1.77-3.35-5.58-6.3-9.43-5.49c-3.9,0.78-6.5,3.9-9.5,6.35c-0.84,0.76-2.16,0.66-2.87-0.23
			c-0.43-0.54-0.53-1.24-0.33-1.85c1.61-5.07,6.95-9.2,12.46-8.94c8.31,0.27,14.92,8.12,14.23,16.23
			c-0.61,8.07-8.5,12.96-15.76,14.28c-14.84,2.8-28.01-8.01-35.83-19.57c-2.69-3.84-4.98-7.96-7.03-12.16
			C518.97,91.45,520.72,90.56,521.35,91.77L521.35,91.77z"/>
		<path class="st0" d="M472.06,66.66c10.57-2.06,22.24,1.84,26.62,12.32c2.67,6.39,2.15,14.84-2.09,20.46
			c-5.52,6.97-15.41,4.82-19.45-2.57c-2.18-3.82-0.73-9.15,2.84-11.45c2.03-1.3,4.41,0.91,3.35,3.03c-1.24,3.04-3.34,5.82-1.74,8.98
			c1.08,1.86,3.21,2.94,5.28,3.34c2.92,0.56,5.89-0.6,7.78-2.9c1.93-2.33,2.91-5.52,3.31-8.69c0.83-6.36-1.79-13.06-7-16.87
			c-5.18-3.94-12.18-4.7-18.44-3.29C470.94,69.32,470.46,66.99,472.06,66.66L472.06,66.66z"/>
		<path class="st0" d="M511.44,77.65c12.68,4.63,25.02,10.1,36.78,16.72c11.57,6.72,22.57,14.56,34.74,20.03
			c11.77,5.38,25.64,8.66,38.08,3.76c13.02-4.98,17.53-19.91,10.56-31.7c-1.66-2.72-3.88-5-6.65-6.59
			c-2.72-1.64-5.75-2.83-8.91-3.25c-6.58-0.89-12.34,1.81-16.1,7.19c-1.59,2.21-2.42,5.62-0.02,7.45c0.24,0.18,0.51,0.31,0.61,0.31
			c3.81,0.16,3.8,5.63-0.02,5.76c-0.69,0.03-1.41-0.37-2.01-0.63c-0.94-0.43-1.6-0.95-2.18-1.53c-2.78-2.71-3.3-7.14-1.64-10.49
			c1.66-3.45,4.62-6.05,7.86-7.83c4.25-2.19,9.08-3.35,13.83-2.69c4.67,0.67,9.09,2.69,12.74,5.65c9.07,7.72,10.8,22.44,3.82,32.07
			c-4.09,5.8-10.86,9.1-17.7,10.28c-23.1,3.81-43.71-11.02-62.41-22.38c-5.68-3.5-11.55-6.63-17.58-9.51
			c-8.01-3.82-16.27-7.27-24.62-10.25C509.15,79.5,509.72,77.15,511.44,77.65L511.44,77.65z"/>
		<path class="st0" d="M607.9,121.69c0,0,11.01,2.44,16.05,9.92c5.04,7.48,2.28,14.32-2.43,15.45c-4.71,1.13-6.79-1.34-7.17-2.28
			c-0.55-1.36,0.75-3.04,2.55-2.13c1.42,0.71,1.74,3.04,4.54,2.1c2.19-0.74,1.76-6.06-2.07-6.58c-3.83-0.52-10.14-0.42-13.61-5.38
			c-3.47-4.95-7.1-10.89-10.48-12.51C599.46,121.13,603.67,121.64,607.9,121.69z"/>
		<path class="st0" d="M615.96,120.86c11.54-5.95,14.14-23.23,5.98-31.59c0,0-0.19,5.63-5.57,10.23
			c-8.09,6.91,4.67,15.38-3.64,21.42L615.96,120.86z"/>
		<path class="st0" d="M630.43,112.82c3.09-2.07,5.75-1.93,12.77-1.64c9.84,0.4,13.24-4.61,16.73-7.48
			c3.49-2.88,8.11,0.37,7.98,3.07c-0.16,3.32-2.54,4.72-4.29,5.37c-2.52,0.93-2.14,3.66-0.54,4.27c1.11,0.42,4.1,0.5,6.42-4.67
			c3.21-7.16-0.89-15.74-11.31-17.38c-14.37-2.26-22.84,9.54-22.84,9.54C634.77,105.17,634.48,109.9,630.43,112.82z M643.87,107.96
			c2.99-0.83,6.03-1.43,8.87-2.72C650.3,107.25,646.96,107.94,643.87,107.96z M641.4,102.41c4.69-4.25,11.58-7.19,17.92-5.52
			c-5.6-0.45-11.05,1.55-15.84,4.29C642.79,101.58,642.11,102.01,641.4,102.41z"/>
		<path class="st0" d="M635.46,103.74c5.07-5.15,7.59-5.28,12.54-10.13c5.53-5.43,1.78-11.37-1.43-15.98
			c-2.73-3.92-0.94-11.92-0.94-11.92c-3.64,3.7-7.72,9.83-9.52,16.89c-1.09,4.29,0.11,7-0.16,13.58L635.46,103.74z M640.47,76.1
			c-0.97,4.07-2.22,8.15-2.67,12.19C637.32,84.53,638.64,80.05,640.47,76.1z"/>
		<path class="st0" d="M425.29,94.73c2.84,5.44,8.1,9.88,14.46,9.65c6.16-0.15,11.87-4.24,14.49-9.74
			c3.39-6.94,1.24-14.99-3.68-20.63c-6.46-7.78-16.67-12.26-26.77-11.7c-10.09,0.58-20.05,5.06-27.49,11.86
			c-7.58,6.89-11.63,16.96-11.6,27.16c-0.08,5.04,0.62,10.16,2.88,14.72c7.9,16.34,30.15,22.38,45.98,14.33
			c6.74-3.42,11.53-9.31,16.13-15.11c2.23-2.61,6.21,0.22,4.51,3.18c-4.41,7.02-11.86,11.75-19.54,14.48
			c-5.05,1.81-10.37,2.94-15.75,2.9c-13.28,0.03-27.18-6.59-33.23-18.85c-2.45-4.83-3.29-10.3-3.19-15.67
			c-0.13-20.21,14.29-35.15,33.25-40c13.25-3.57,27.7,0.68,36.51,11.3c3.54,4.16,5.92,9.43,5.84,14.98
			c0.04,9.81-8.41,18.82-18.29,19.02c-7.23,0.26-13.26-4.67-16.46-10.81C422.68,94.48,424.56,93.46,425.29,94.73L425.29,94.73z"/>
		<path class="st0" d="M398.9,128.28c4.17,2.43,9.36,2.79,13.92,1.38c4.19-1.24,8.51-4.31,9.77-8.46c1.34-4.05,7.21-2.37,6.19,1.79
			c-0.13,0.45-0.36,0.84-0.63,1.2c-4.45,5.99-11.51,8.85-18.67,8.96c-4.06,0.03-8.12-1-11.65-2.99
			C396.59,129.42,397.63,127.58,398.9,128.28L398.9,128.28z"/>
		<path class="st0" d="M425.86,97.77c0,0-6.29-2.97-7.59-10.26s3.75-13.39,7.95-15.19c3.77-1.62,8.29-1.22,10.47,2.43
			c0.41,0.69,0.12,1.59-0.62,1.9h0c-0.64,0.27-1.39,0.01-1.68-0.62c-1.46-3.12-3.82-3.74-5.73-3c-2.98,1.15-3.47,5.26-0.94,7.21
			C435.86,86.51,427.65,91.48,425.86,97.77z"/>
		<path class="st0" d="M421.6,60.15c5.28-1.13,11.05-4.62,11.72-10.43c0.68-7.33-4.26-14.52-11.14-16.99
			c-5.13-1.91-11.51-2.21-16.16,0.96c-2.99,2.17-5.49,5.92-4.58,9.67c0.51,2.84,2.6,5.03,5.03,6.45c1.3,0.8,1.71,2.5,0.92,3.8
			c-0.86,1.43-2.84,1.76-4.12,0.69c-1.59-1.28-3.01-2.8-4.07-4.58c-1.07-1.8-1.74-3.9-1.78-6c0.01-4.07,1.87-7.86,4.63-10.65
			c7.93-8.06,23.58-4.85,29.88,3.81c2.23,3,3.56,6.57,3.85,10.3c0.44,4.9-2.03,9.48-6.13,12.13c-1.91,1.29-4.03,2.22-6.24,2.87
			c-0.45,0.13-0.87,0.24-1.38,0.34c-0.65,0.13-1.29-0.29-1.42-0.94C420.48,60.91,420.93,60.26,421.6,60.15L421.6,60.15z"/>
		<path class="st0" d="M386.35,84.5c54.47-21.03,20.43-74.32-11.82-62.95c-7.77,2.53-12.07,10.58-11.93,18.47
			c0.06,4.16,1.03,8.77,4.27,11.56c5.45,4.9,15.02,6.07,19.37-0.56c0.82-1.27,1.4-2.74,1.78-4.31c0.98-3.53,6.1-2.31,5.37,1.29
			c-2.05,6.58-7.58,11.49-14.68,11.24c-4.11-0.15-8.04-1.34-11.48-3.54c-1.7-1.12-3.33-2.5-4.47-4.21
			c-4.21-6.69-3.65-15.98-0.09-22.82c2.86-5.5,7.86-8.86,13.81-10.27c21.29-5.52,43.41,15.24,40.81,36.7
			c-1.78,15.87-16.15,26.35-30.06,31.64C385.73,87.28,384.89,85.13,386.35,84.5L386.35,84.5z"/>
		<path class="st0" d="M380.35,57.46c-5.14-8.73-13.91-11.09-22.88-6.53c-9.76,5.09-12.92,19.27-6.87,28.26
			c1.06,1.57,2.43,3,3.99,4.06c4.42,2.83,11.69,3.13,15.48-0.79c2.42-2.58,1.57-6.12,0.12-9.14c-0.66-1.37-0.09-3.03,1.29-3.69
			c1.47-0.72,3.28,0.03,3.81,1.58c0.83,2.31,1.36,4.76,1.16,7.29c-0.24,4.07-3,7.6-6.78,8.96c-5.35,1.87-11.99,1.48-16.78-1.7
			c-7.59-5.35-9.71-15.91-6.88-24.36c2.83-9.02,10.51-14.83,19.96-15.14c7-0.26,13.01,4.11,16.45,9.95
			C383.2,57.61,381.2,58.8,380.35,57.46L380.35,57.46z"/>
		<path class="st0" d="M369.87,86.41c-5.93,5.76-12.99,10.24-19.7,14.92c-3.18,2.28-6.43,4.77-8.75,7.91
			c-1.07,1.53-1.48,3.47-2.08,5.18c-0.44,1.28-0.86,2.55-1.39,3.81c-0.18,0.51-0.43,1.03-0.72,1.52c-0.63,1.09-2.02,1.46-3.11,0.84
			c-2.33-1.28-0.78-6.5,0.25-8.36c1.03-2.02,2.83-3.6,4.41-5.19c5.69-6.13,13.55-9.71,20.26-14.47c3.34-2.29,6.48-4.85,9.29-7.73
			C369.36,83.82,370.92,85.34,369.87,86.41L369.87,86.41z"/>
		<path class="st0" d="M424.39,61.15l2.03,0.02c0,0,5.45-0.59,12.69-4.54c7.25-3.95,22.34-11.69,25.04-0.6c0,0,5.1-3.1,1.05-8.8
			c-4.05-5.7-12.89-3.55-20.74,2.1c-7.85,5.65-6.35,6.2-11.54,8.35c0,0,2.95-2.95,6.1-6.8c3.15-3.85,11.09-8.8,11.99-14.24
			c0.9-5.45,0-10.27,2.65-12.62c2.65-2.35,5.95-0.82,7.72-0.97s1.45-3.5-3.67-3c-5.12,0.5-13.74,5.35-16.74,14.49
			c-3,9.15,0.24,14.79-10.75,22.88L424.39,61.15z M441.03,42.41c0.83-5.58,2.71-11.66,7.2-15.37
			C444.6,31.37,442.87,37.15,441.03,42.41z"/>
		<path class="st0" d="M361.42,39.99c0,0-2.95-5.5-8.65-7.3c-5.7-1.8-5.85-4.75-7.55-7.6s-4.8-4.75-5-6.25
			c-0.2-1.5,7.7,1.7,20.09,15.99c0,0-1.24-4.79-3.05-11.29c-3.05-10.98,2.69-22.79,12.24-23.49c11.22-0.82,7.44,7.24,5.36,5.52
			c-1.84-1.52-1.27-4.18-4.52-4.1c-4.95,0.11-9.43,7.27-5.78,9.97c3.58,2.64,4.01,6.32,1.11,12.75
			C362.8,30.61,361.52,31.59,361.42,39.99z"/>
		<path class="st0" d="M345.17,73.71c0.26,2.54,0.74,7.05-1.81,8.45c-0.28,0.15-0.4,0.48-0.29,0.78l0,0c0.11,0.3,0.41,0.4,0.73,0.4
			c1.64,0.02,5.94-0.42,5.46-6.69L345.17,73.71z"/>
	</g>
	<g>
		<g>
			<path class="st0" d="M592.44,269.45c3.33-2.22,7.72-1.96,11.36-0.74c5.39,1.8,9.57,5.98,12.7,10.57
				c8.65,11.9,7.4,27.74,2.21,40.78c-1.91,4.88-4.18,9.7-7.5,13.81c-16.91,21.05-50.85,30.16-75.89,19.9
				c-0.95-0.47-0.4-1.86,0.63-1.5c24.32,9.77,57.17,0.61,73.34-19.89c4.12-5.29,6.62-11.67,8.59-18.03
				c1.88-6.37,2.78-13.14,1.68-19.7c-1.09-6.36-4.09-12.63-9.43-16.42c-5.06-3.51-10.87-5.8-17-6.53
				C591.95,271.69,591.47,270.13,592.44,269.45L592.44,269.45z"/>
			<path class="st0" d="M477.58,371c6.12,2.1,12.47-2.75,15.84-7.54c5.85-8.33,4.08-17.58-1.43-25.58
				c-3.91-6.04-9.92-10.33-16.87-12.37c-16.69-4.89-34.34-0.99-51.54-2.72c-2.51-0.27-5.03-0.68-7.5-1.37
				c-7.91-2.07-14.06-7.48-15.91-15.64c-1.19-5.04-0.72-10.8,2.49-15.07c3.16-4.3,8.57-6.66,13.86-6.28
				c5.45,0.31,10.52,3.82,11.66,9.34c1.14,5.32-1.89,11.1-6.94,13.17c-2.53,1-5.65,1.03-7.93-0.62c-2.29-1.67-3.43-4.62-2.92-7.4
				c0.49-3,3.18-4.91,6.11-4.93c0.45-0.02,0.82,0.33,0.84,0.78s-0.33,0.82-0.78,0.84c-1.12,0.05-2.2,0.35-3.01,0.98
				c-2.64,2.06-1.83,6.58,0.74,8.36c1.8,1.29,4.3,1.19,6.3,0.39c2.09-0.85,3.82-2.55,4.87-4.58c1.94-3.56,1.4-8.15-1.41-11.07
				c-3.61-3.83-9.82-4.22-14.44-2.09c-4.28,1.89-7.27,6.05-7.8,10.7c-0.55,4.61,0.6,9.55,3.31,13.37c2.7,3.93,7,6.31,11.57,7.51
				c14.47,3.4,29.39,0.34,44.25,1.34c7.52,0.4,15.33,1.67,22.11,5.29c8.86,4.7,16,14.67,17.53,24.61
				c1.38,8.11-1.33,17.07-8.24,22.12c-4.38,3.41-11.96,4.96-16.16,0.37C475.33,371.93,476.43,370.51,477.58,371L477.58,371z"/>
			<path class="st0" d="M473.99,300.49c2.29-3.49,7.58-2.44,10.25-0.13c1.35,1.09,2.4,2.44,3.15,3.93
				c1.99,4.18,2.85,9.73,0.83,14.01c-2.68,5.59-8.74,8.52-14.35,10.19c-1.42,0.44-2.91,0.84-4.4,0.95
				c-7.44,0.48-14.46-2.73-20.86-6.1c-10.09-5.56-19.24-12.58-27.64-20.43c-4.11-3.86-8.39-7.58-12.85-11.03
				c-12.71-9.65-29.22-20.2-45.71-14.94c-9.85,3.47-19.42,12.92-21.41,23.42c-1.02,5.26,0.19,11.23,4.38,14.78
				c2.99,2.62,7.37,3.73,11.3,3.39c3.99-0.42,7.42-3.34,8.78-7.09c0.93-2.47,0.97-5.31-0.16-7.64c-1.63-3.39-5.94-5.87-9.43-3.58
				c-1.02,0.65-1.81,1.65-1.92,2.63c-0.11,0.93-0.95,1.6-1.89,1.49c-1.2-0.11-1.9-1.55-1.26-2.56c2.24-3.84,7.23-5.29,11.12-3.47
				c5.3,2.44,7.15,8.46,5.12,13.73c-2.29,6.13-8.26,9.24-14.64,8.01c-9.96-1.46-15-10.47-13.21-20c1.58-8.77,7.63-16.01,14.7-21.1
				c12.96-9.37,28.44-5.88,41.44,1.37c10.11,5.56,19.01,12.92,27.39,20.77c8.19,7.69,17.18,14.75,27.01,20.21
				c4.86,2.61,10.06,4.97,15.53,5.72c2.7,0.39,5.37,0.13,7.93-0.74c2.65-0.81,5.2-1.89,7.46-3.35c4.32-2.64,7.58-8.02,5.17-12.98
				c-1.51-2.98-5.78-6.29-8.85-7.35c-0.45-0.16-1.24-0.23-1.88-0.19C474.12,302.45,473.48,301.3,473.99,300.49L473.99,300.49z"/>
			<path class="st0" d="M553.68,338.61c-4.03,1.23-8.42-0.93-11.01-4.01c-2.59-2.94-3.83-6.88-4.39-10.6
				c-1.26-7.27-0.32-15.14,4.2-21.16c4.37-6.05,11.89-8.98,19.15-9.24c4.83-0.26,9.75,0.45,14.11,2.63
				c11.69,5.75,14.46,20.06,10.55,31.58c-4.35,13.79-17.16,23.76-31.23,26.1c-9.3,1.74-18.79,0.56-27.89-1.67
				c-13.63-3.25-26.5-9.6-37.4-18.39c-0.79-0.69,0.12-1.91,1.01-1.27c10.76,8.6,23.4,14.77,36.81,17.92
				c13.1,3.28,27.77,3.78,39.82-3.07c7.85-4.38,14.06-11.72,16.77-20.31c3.49-10.39,1.07-23.66-9.52-28.72
				c-5.96-2.9-13.13-2.92-19.42-1.16c-10.25,2.89-15.42,12.41-13.99,22.69c0.93,5.96,5.03,11.42,9.86,14.73
				c0.82,0.56,1.75,1.07,2.78,1.61C554.88,336.78,554.73,338.31,553.68,338.61L553.68,338.61z"/>
			<path class="st0" d="M554.97,325.86c-2.46-1.5-3.38-4.43-3.14-7.18c0.28-2.8,1.88-5.33,3.66-7.41c3.51-3.84,9.08-5.14,14.01-4.46
				c14.45,2.03,19.34,19.43,11.5,30.61c-1.74,2.66-3.97,4.93-6.36,6.94c-0.34,0.29-0.85,0.24-1.14-0.1
				c-0.29-0.34-0.24-0.85,0.1-1.14c4.47-3.82,8.23-8.92,8.94-14.84c1.06-8.81-4.09-17.76-13.38-18.81
				c-4.5-0.59-10.28,0.96-11.95,5.61c-0.58,2.5,0.45,4.89,0.27,7.45c-0.05,0.73-0.1,1.57-0.38,2.48
				C556.86,325.92,555.76,326.35,554.97,325.86L554.97,325.86z"/>
			<path class="st0" d="M349.17,285.25c-2.78,0.97-5.74,1.68-8.69,1.09c-2.98-0.58-5.6-2.74-6.72-5.57
				c-1.11-2.92-1.44-6.21-0.65-9.31c0.67-2.3,1.99-4.69,4.18-5.8c0.9-0.49,3.7-1.15,3.43,0.76c-0.48,2.86-2.6,4.32-4.09,6.58
				c-1.5,2.02-2.39,4.79-1.51,7.28c1.94,6.01,8.59,6.33,13.43,3.58C349.52,283.34,350.21,284.85,349.17,285.25L349.17,285.25z"/>
			<path class="st0" d="M336.36,284.1c0,0-4.34,1.27-4.01,7.14c0.02,0.35,0.48,0.49,0.68,0.2c1.13-1.62,3.92-4.91,8.17-5.25
				L336.36,284.1z"/>
			<path class="st0" d="M391.15,279.52c0,0-14.26-11.66-29.75-16.46"/>
			<path class="st0" d="M417.2,320.51c-16.34-1.23-21.78-9.69-26.48-18.64c-0.1-0.2,0.08-0.42,0.29-0.35
				c1.45,0.49,5.67,2.4,12.35,9.42C403.37,310.94,408.83,318.6,417.2,320.51z"/>
			<path class="st0" d="M351.43,319.01c4.01,2.29,7.51,4.66,9.87,7.2c0.35,0.38,0.98,0.04,0.86-0.47c-0.46-1.85-1.5-4.64-3.75-6.44
				L351.43,319.01z"/>
			<path class="st0" d="M428.23,307.69c0,0,6.01,3.04,12.57-2.85c2.92-2.62,3.42-6.11,6.71-8.51c4.09-2.98,16.94-5.02,23.13-1.99
				c0.45,0.19,0.39,0.71-0.11,0.67c0,0-4.27-0.22-6.41,3.61c-2.14,3.82-7.98,11.99-15.93,12.52c-7.95,0.52-12.21-0.58-14.58-0.79
				c-2.37-0.2-3.3-0.96-3.3-0.96L428.23,307.69z"/>
			<path class="st0" d="M455.38,325.33c0,0,12.78,6.58,16.43,17.17c0.14,0.4,0.66,0.49,0.9,0.14c1.1-1.58,3.01-5.93,0.19-15.08
				C467.79,329.36,461.95,328.6,455.38,325.33z"/>
			<path class="st0" d="M555.81,278.76c2.21-4.02,0.34-7.78-3.58-9.73c-4.3-1.73-9.16-1.47-13.65-0.62
				c-9.2,1.88-17.59,7.16-23.77,14.19c-3.11,3.54-5.69,7.52-7.74,11.79c-3.26,6.39-6.09,12.97-9.34,19.38
				c-2.26,4.29-4.71,8.75-8.89,11.55c-2.12,1.4-4.68,2.12-7.2,2.18c-0.47,0.01-0.86-0.35-0.87-0.82c-0.02-0.47,0.37-0.87,0.84-0.87
				c4.85,0.02,8.49-2.81,11.17-6.68c2.71-3.85,4.74-8.19,6.77-12.46c4.19-8.61,7.7-17.78,14.16-25.03
				c8.63-9.88,22.13-17.11,35.52-15.21c5.61,1.1,10.92,3.08,11.94,9.49c0.23,1.55,0.16,3.11-0.12,4.59
				c-0.27,1.52-1.73,2.54-3.25,2.26C555.98,282.49,554.94,280.38,555.81,278.76L555.81,278.76z"/>
			<path class="st0" d="M510.16,287.47c3.06-6.9,6.56-13.38,5.3-24.32c-0.08-0.73,0.76-1.21,1.33-0.74
				c2.42,1.99,6.74,6.29,6.61,11.63C523.4,274.05,514.5,279.7,510.16,287.47z"/>
			<path class="st0" d="M503.18,301.36c0,0,5.57-11.61,16.34-15.71c12.99-4.95,20.14-1.3,23.94-5.2l0.75,0.5
				c0,0-3.09,8.29-9.74,10.84c-11.34,4.35-15.57-2.42-25.46,5.3c-4.55,3.55-7.12,10.64-12.17,20.04
				c6.82-10.38,15.72-13.65,23.69-12.14c4.4,0.89,7.6,4,6.36,7.29c-0.28,0.75-1.15,1.08-1.85,0.69l0,0c-0.52-0.29-0.77-0.9-0.6-1.47
				c1.37-4.6-7.61-5.69-9.16-1.52c-2.9,7.01-1.75,18.97-24.19,18.85c0,0,8.36,2.84,25.16,2.55c11.99-0.21,17.06,8.04,16.1,12.43
				c-0.12,0.55-0.69,0.88-1.23,0.69l0,0c-0.43-0.15-0.68-0.57-0.63-1.01c0.17-1.4-0.04-4.24-4.57-4.16c-6,0.11-9.63,2.66-18.25-0.37
				c-8.62-3.04-22.25-10.03-22.25-10.03l-2.26-2.28c0,0,5.79-1.13,8.58-4.92c2.79-3.79,6.81-11.17,8.27-14.28
				C501.46,304.34,503.18,301.36,503.18,301.36z"/>
			<path class="st0" d="M582.7,334.6c3.81-4.98,10.73-15.22,16.34-14.65c0,0-6.76-6.35-12.21,2.81L582.7,334.6z"/>
			<path class="st0" d="M613.9,342.38c-0.2-0.16-0.48-0.18-0.71-0.07c-4.64,2.19-9.38,3.38-14.42,1.69l-8.4,5.07
				c2.02,2.12,12.84,5.41,23.61-5.65C614.27,343.12,614.23,342.63,613.9,342.38z"/>
			<path class="st0" d="M618.86,313.09c-0.43-8.09-3.89-15.51-8.44-20.14c-0.35-0.36-0.43-0.9-0.17-1.33l0,0
				c0.24-0.4,0.71-0.61,1.17-0.5c1.9,0.44,6.8,2.18,9.43,8.71C620.85,299.82,621,305.86,618.86,313.09z"/>
			<path class="st0" d="M609.56,334c7.57,0.22,17.2-4.04,23.25-8.46c3.35-2.45,5.25-4.8,7.87-11.13c3.17-7.65,0.94-11.73-3.07-11.88
				c-4.01-0.15-6.52,2.55-6.41,4.54c0.11,1.99,3.22,2.36,5.32-1.01c2.1-3.37,6.15,0.56,2.44,5.96c-3.71,5.4-8.51,2.62-14.17,4.27
				s-8.76,6.89-8.76,6.89L609.56,334z"/>
		</g>
		<g>
			<path class="st0" d="M65,271.71c-6.55,0.74-13.87,3.69-18.86,8.03c-9.28,8.76-9.42,23.12-5.89,34.62
				c1.45,4.78,3.32,9.57,5.79,13.9c11.56,18.64,35.02,28.14,56.41,27.94c6.75-0.14,13.51-1.34,19.73-3.92
				c0.41-0.17,0.89,0.02,1.06,0.44c0.17,0.41-0.02,0.88-0.43,1.06c-25.03,10.26-58.99,1.15-75.89-19.9
				c-4.38-5.52-7.09-12.11-9.21-18.76c-3.11-10.08-3.66-21.47,1.13-31.16c2.52-4.87,5.89-9.46,10.42-12.67
				c3.92-2.68,8.97-4.3,13.7-3.07c1.21,0.39,4.09,1.22,3.02,2.98C65.74,271.52,65.38,271.69,65,271.71L65,271.71z"/>
			<path class="st0" d="M181.93,372.92c-1.96,2.24-5.29,3.12-8.19,2.81c-8.7-0.93-15.1-9.08-16.25-17.23
				c-1.61-10.62,3.63-21.09,11.23-28.21c3.81-3.51,8.56-5.92,13.48-7.39c19.35-5.79,39.88,0.7,59.22-3.72
				c4.56-1.2,8.87-3.58,11.57-7.51c3.9-5.59,4.95-14.04,0.83-19.75c-2.71-3.77-7.48-5.87-12.09-5.58
				c-7.55,0.35-12.66,7.4-9.08,14.43c1.76,3.51,5.85,6.03,9.76,4.9c3.62-1.04,5.26-6.62,2.16-9.08c-0.81-0.64-1.89-0.94-3.01-0.98
				c-1.07-0.07-0.99-1.64,0.06-1.62c9.11,0.35,7.63,13.39-0.75,13.63c-4.12,0.25-7.96-2.49-9.78-6.04
				c-4.23-8.17,1.65-16.67,10.51-17.15c5.29-0.37,10.7,1.98,13.86,6.28c3.21,4.27,3.68,10.03,2.49,15.07
				c-1.85,8.16-7.99,13.56-15.91,15.64c-2.47,0.68-4.99,1.1-7.5,1.37c-17.19,1.73-34.84-2.17-51.54,2.72
				c-6.94,2.04-12.96,6.33-16.87,12.37c-5.5,7.99-7.29,17.25-1.43,25.58c3.36,4.79,9.74,9.64,15.84,7.54
				C181.75,370.5,182.77,371.97,181.93,372.92L181.93,372.92z"/>
			<path class="st0" d="M182.69,302.46c-1.19,0.03-1.82,0.33-2.77,0.82c-0.8,0.41-1.66,0.96-2.54,1.6c-2.79,2-6,4.9-5.77,8.7
				c0.23,7.03,7.36,10.78,13.35,12.61c1.29,0.39,2.55,0.75,3.91,0.86c11.16,0.7,24.83-8.62,33.58-15.11
				c4.49-3.41,8.81-7.06,12.89-10.93c8.38-7.86,17.29-15.22,27.41-20.78c13-7.25,28.56-10.74,41.52-1.35
				c4.76,3.42,8.92,7.69,11.76,12.85c4.34,7.57,5.09,18.66-2.13,24.77c-3.5,2.95-8.17,4.16-12.65,3.77
				c-4.63-0.47-8.66-3.89-10.21-8.21c-1.7-4.33-0.71-9.78,3.18-12.6c1.27-0.95,2.72-1.7,4.3-1.91c3.5-0.41,7.04,0.99,8.95,4.23
				c1.2,2.1-1.79,3.96-3.13,1.92c-0.15-0.25-0.24-0.53-0.27-0.8c-0.08-0.95-0.84-1.95-1.85-2.6c-2.23-1.46-4.91-1.04-6.92,0.6
				c-6.9,5.38-1.99,16.85,6.15,17.58c6.91,0.61,13.59-3.1,15.37-10.07c3.33-13.44-9.18-27.21-21.14-31.39
				c-16.46-5.25-32.93,5.3-45.63,14.93c-4.45,3.45-8.73,7.17-12.84,11.03c-8.4,7.86-17.56,14.88-27.66,20.44
				c-7.51,3.94-16.78,8.09-25.32,5.15c-7.04-1.96-15.22-6.69-15.57-14.88c-0.08-3.26,0.5-6.51,1.93-9.49
				c1.89-3.96,6.66-7.39,11.26-5.69c1.41,0.51,3.66,2.5,1.83,3.77c-0.2,0.11-0.42,0.17-0.63,0.18L182.69,302.46L182.69,302.46z"/>
			<path class="st0" d="M104.32,336.25c6.12-3.01,11.49-9.42,12.56-16.3c0.9-6.39-0.83-13.38-5.58-17.91
				c-3.95-3.86-9.49-5.58-14.94-5.88c-6.52-0.5-13.53,1.25-18.14,6.08c-6.26,6.46-6.97,16.61-4.27,24.91
				c2.71,8.59,8.92,15.93,16.77,20.31c16.32,9.12,36.29,5.29,52.93-1.06c8.53-3.38,16.51-8.08,23.7-13.79
				c0.35-0.28,0.86-0.22,1.14,0.13c0.28,0.35,0.22,0.86-0.13,1.14c-10.9,8.78-23.77,15.14-37.4,18.39
				c-9.1,2.23-18.59,3.4-27.89,1.67c-14.06-2.34-26.88-12.31-31.23-26.1c-3.91-11.52-1.14-25.84,10.55-31.58
				c6.56-3.22,14.27-3.36,21.25-1.5c7.21,1.92,13.18,7.5,15.39,14.66c1.62,4.71,1.61,9.72,0.83,14.6
				c-0.71,5.04-2.91,10.45-7.47,13.27c-2.3,1.45-5.29,2.16-7.93,1.34C103.34,338.26,103.27,336.7,104.32,336.25L104.32,336.25z"/>
			<path class="st0" d="M101.18,324.99c-0.29-1.72-0.13-3.06-0.01-4.36c0.17-1.91,0.6-3.81,0.04-5.68
				c-0.65-1.92-2.22-3.34-3.99-4.33c-5.06-2.64-11.7-1.66-16.06,1.94c-4.46,3.76-6.44,10.04-5.72,15.76
				c0.73,5.96,4.52,11.08,9.02,14.92c0.29,0.24,0.32,0.67,0.07,0.96c-0.24,0.28-0.66,0.31-0.95,0.07c-2.38-2-4.59-4.27-6.32-6.92
				c-7.74-11.09-2.92-28.3,11.4-30.3c4.92-0.67,10.33,0.61,13.77,4.41c1.73,2.02,3.19,4.52,3.43,7.23c0.14,1.78-0.2,3.6-1.1,5.13
				c-0.44,0.75-1.01,1.42-1.77,1.97C102.3,326.29,101.27,325.83,101.18,324.99L101.18,324.99z"/>
			<path class="st0" d="M309.59,283.86c3.45,1.93,8.27,2.61,11.37-0.28c1.94-1.76,2.83-4.63,2.2-7.16
				c-0.31-1.27-0.95-2.41-1.66-3.42c-1.02-1.57-2.42-2.77-3.33-4.4c-0.36-0.78-1.62-3.16,0.12-3.43c1.82-0.13,3.33,0.69,4.44,1.99
				c2.16,2.43,2.98,5.94,2.65,9.11c-0.8,9.59-8.15,12.15-16.43,8.99C307.92,284.85,308.6,283.35,309.59,283.86L309.59,283.86z"/>
			<path class="st0" d="M321.76,284.1c0,0,4.34,1.27,4.01,7.14c-0.02,0.35-0.48,0.49-0.68,0.2c-1.13-1.62-3.92-4.91-8.17-5.25
				L321.76,284.1z"/>
			<path class="st0" d="M266.98,279.52c0,0,14.26-11.66,29.75-16.46"/>
			<path class="st0" d="M240.93,320.51c16.34-1.23,21.78-9.69,26.48-18.64c0.1-0.2-0.08-0.42-0.29-0.35
				c-1.45,0.49-5.67,2.4-12.35,9.42C254.76,310.94,249.3,318.6,240.93,320.51z"/>
			<path class="st0" d="M306.7,319.01c-4.01,2.29-7.51,4.66-9.87,7.2c-0.35,0.38-0.98,0.04-0.86-0.47c0.46-1.85,1.5-4.64,3.75-6.44
				L306.7,319.01z"/>
			<path class="st0" d="M229.9,307.69c0,0-6.01,3.04-12.57-2.85c-2.92-2.62-3.42-6.11-6.71-8.51c-4.09-2.98-16.94-5.02-23.13-1.99
				c-0.45,0.19-0.39,0.71,0.11,0.67c0,0,4.27-0.22,6.41,3.61c2.14,3.82,7.98,11.99,15.93,12.52c7.95,0.52,12.21-0.58,14.58-0.79
				c2.37-0.2,3.3-0.96,3.3-0.96L229.9,307.69z"/>
			<path class="st0" d="M202.74,325.33c0,0-12.78,6.58-16.43,17.17c-0.14,0.4-0.66,0.49-0.9,0.14c-1.1-1.58-3.01-5.93-0.19-15.08
				C190.34,329.36,196.18,328.6,202.74,325.33z"/>
			<path class="st0" d="M97.04,280.36c-1.15-6.39,1.95-11.34,8.22-12.99c2.37-0.81,4.83-1.23,7.32-1.26
				c17.32-0.03,32.61,12.44,39.78,27.63c3.27,6.37,6.08,12.98,9.36,19.33c2.17,4.04,4.56,8.34,8.43,10.9
				c1.89,1.22,4.11,1.8,6.37,1.83c0.47,0.01,0.84,0.39,0.83,0.86c-0.01,0.47-0.4,0.85-0.87,0.83c-1.26-0.04-2.52-0.22-3.75-0.58
				c-6.17-1.83-9.56-7.85-12.34-13.15c-3.25-6.41-6.07-12.99-9.34-19.38c-5.98-12.73-17.57-23.13-31.51-25.98
				c-4.49-0.88-11.24-1.28-15.09,1.48c-3.07,2.23-3.98,5.5-2.15,8.87c0.7,1.38,0.16,3.06-1.22,3.77
				C99.41,283.43,97.25,282.25,97.04,280.36L97.04,280.36z"/>
			<path class="st0" d="M147.97,287.47c-3.06-6.9-6.56-13.38-5.3-24.32c0.08-0.73-0.76-1.21-1.33-0.74
				c-2.42,1.99-6.74,6.29-6.61,11.63C134.73,274.05,143.63,279.7,147.97,287.47z"/>
			<path class="st0" d="M154.95,301.36c0,0-5.57-11.61-16.34-15.71c-12.99-4.95-20.14-1.3-23.94-5.2l-0.75,0.5
				c0,0,3.09,8.29,9.74,10.84c11.34,4.35,15.57-2.42,25.46,5.3c4.55,3.55,7.12,10.64,12.17,20.04
				c-6.82-10.38-15.72-13.65-23.69-12.14c-4.4,0.89-7.6,4-6.36,7.29c0.28,0.75,1.15,1.08,1.85,0.69l0,0c0.52-0.29,0.77-0.9,0.6-1.47
				c-1.37-4.6,7.61-5.69,9.16-1.52c2.9,7.01,1.75,18.97,24.19,18.85c0,0-8.36,2.84-25.16,2.55c-11.99-0.21-17.06,8.04-16.1,12.43
				c0.12,0.55,0.69,0.88,1.23,0.69l0,0c0.43-0.15,0.68-0.57,0.63-1.01c-0.17-1.4,0.04-4.24,4.57-4.16c6,0.11,9.63,2.66,18.25-0.37
				s22.25-10.03,22.25-10.03l2.26-2.28c0,0-5.79-1.13-8.58-4.92c-2.79-3.79-6.81-11.17-8.27-14.28
				C156.67,304.34,154.95,301.36,154.95,301.36z"/>
			<path class="st0" d="M75.43,334.6c-3.81-4.98-10.73-15.22-16.34-14.65c0,0,6.76-6.35,12.21,2.81L75.43,334.6z"/>
			<path class="st0" d="M44.23,342.38c0.2-0.16,0.48-0.18,0.71-0.07c4.64,2.19,9.38,3.38,14.42,1.69l8.4,5.07
				c-2.02,2.12-12.84,5.41-23.61-5.65C43.86,343.12,43.9,342.63,44.23,342.38z"/>
			<path class="st0" d="M39.26,313.09c0.43-8.09,3.89-15.51,8.44-20.14c0.35-0.36,0.43-0.9,0.17-1.33h0
				c-0.24-0.4-0.71-0.61-1.17-0.5c-1.9,0.44-6.8,2.18-9.43,8.71C37.28,299.82,37.13,305.86,39.26,313.09z"/>
			<path class="st0" d="M48.57,334c-7.57,0.22-17.2-4.04-23.25-8.46c-3.35-2.45-5.25-4.8-7.87-11.13
				c-3.17-7.65-0.94-11.73,3.07-11.88c4.01-0.15,6.52,2.55,6.41,4.54s-3.22,2.36-5.32-1.01c-2.1-3.37-6.15,0.56-2.44,5.96
				c3.71,5.4,8.51,2.62,14.17,4.27s8.76,6.89,8.76,6.89L48.57,334z"/>
		</g>
	</g>
	<g>
		<path class="st0" d="M231.12,382.21v-30.42h6.38c3.06,0,5.48,0.3,7.25,0.91c1.9,0.59,3.63,1.6,5.18,3.01
			c3.14,2.86,4.71,6.63,4.71,11.29c0,4.68-1.64,8.46-4.91,11.35c-1.64,1.44-3.36,2.45-5.16,3.01c-1.68,0.56-4.07,0.85-7.15,0.85
			H231.12z M235.71,377.89h2.07c2.06,0,3.78-0.22,5.14-0.65c1.37-0.46,2.6-1.19,3.7-2.19c2.26-2.06,3.39-4.75,3.39-8.06
			c0-3.34-1.12-6.04-3.35-8.12c-2.01-1.85-4.97-2.78-8.89-2.78h-2.07V377.89z"/>
		<path class="st0" d="M281.23,356.1h-12.19v7.31h11.84v4.31h-11.84v10.17h12.19v4.31h-16.79v-30.42h16.79V356.1z"/>
		<path class="st0" d="M308.5,356.32l-3.72,2.21c-0.7-1.21-1.36-2-1.99-2.36c-0.66-0.42-1.5-0.63-2.54-0.63
			c-1.27,0-2.33,0.36-3.17,1.08c-0.84,0.71-1.26,1.6-1.26,2.68c0,1.48,1.1,2.68,3.31,3.59l3.03,1.24c2.47,1,4.28,2.22,5.42,3.65
			c1.14,1.44,1.71,3.2,1.71,5.29c0,2.8-0.93,5.11-2.8,6.93c-1.88,1.84-4.21,2.76-6.99,2.76c-2.64,0-4.82-0.78-6.54-2.34
			c-1.69-1.56-2.75-3.76-3.17-6.6l4.65-1.02c0.21,1.79,0.58,3.02,1.1,3.7c0.95,1.31,2.32,1.97,4.14,1.97c1.43,0,2.62-0.48,3.57-1.44
			c0.95-0.96,1.42-2.17,1.42-3.64c0-0.59-0.08-1.13-0.25-1.63c-0.16-0.49-0.42-0.95-0.77-1.36c-0.35-0.41-0.8-0.8-1.35-1.16
			c-0.55-0.36-1.21-0.71-1.97-1.03l-2.94-1.22c-4.16-1.76-6.25-4.33-6.25-7.72c0-2.29,0.87-4.2,2.62-5.73
			c1.75-1.55,3.92-2.32,6.52-2.32C303.79,351.2,306.53,352.9,308.5,356.32z"/>
		<path class="st0" d="M323.45,351.79v30.42h-4.59v-30.42H323.45z"/>
		<path class="st0" d="M350.43,366.37H363v1c0,2.29-0.27,4.31-0.81,6.07c-0.53,1.63-1.41,3.15-2.66,4.57
			c-2.82,3.18-6.42,4.77-10.78,4.77c-4.26,0-7.9-1.54-10.93-4.61c-3.03-3.09-4.55-6.79-4.55-11.11c0-4.41,1.54-8.16,4.63-11.23
			c3.09-3.09,6.84-4.63,11.27-4.63c2.38,0,4.6,0.49,6.66,1.46c1.97,0.97,3.91,2.55,5.81,4.73l-3.27,3.13
			c-2.5-3.32-5.54-4.98-9.12-4.98c-3.22,0-5.92,1.11-8.1,3.33c-2.18,2.18-3.27,4.91-3.27,8.2c0,3.39,1.21,6.18,3.64,8.37
			c2.27,2.04,4.73,3.05,7.39,3.05c2.26,0,4.29-0.76,6.09-2.29c1.8-1.54,2.8-3.38,3.01-5.52h-7.58V366.37z"/>
		<path class="st0" d="M372.81,382.21v-32.49l22.18,23.21v-21.14h4.59v32.27l-22.18-23.15v21.3H372.81z"/>
		<path class="st0" d="M428.1,356.32l-3.72,2.21c-0.7-1.21-1.36-2-1.99-2.36c-0.66-0.42-1.5-0.63-2.54-0.63
			c-1.27,0-2.33,0.36-3.17,1.08c-0.84,0.71-1.26,1.6-1.26,2.68c0,1.48,1.1,2.68,3.31,3.59l3.03,1.24c2.47,1,4.28,2.22,5.42,3.65
			c1.14,1.44,1.71,3.2,1.71,5.29c0,2.8-0.93,5.11-2.8,6.93c-1.88,1.84-4.21,2.76-6.99,2.76c-2.64,0-4.82-0.78-6.54-2.34
			c-1.69-1.56-2.75-3.76-3.17-6.6l4.65-1.02c0.21,1.79,0.58,3.02,1.1,3.7c0.95,1.31,2.32,1.97,4.14,1.97c1.43,0,2.62-0.48,3.57-1.44
			c0.95-0.96,1.42-2.17,1.42-3.64c0-0.59-0.08-1.13-0.25-1.63c-0.16-0.49-0.42-0.95-0.77-1.36c-0.35-0.41-0.8-0.8-1.35-1.16
			c-0.55-0.36-1.21-0.71-1.97-1.03l-2.94-1.22c-4.16-1.76-6.25-4.33-6.25-7.72c0-2.29,0.87-4.2,2.62-5.73
			c1.75-1.55,3.92-2.32,6.52-2.32C423.4,351.2,426.13,352.9,428.1,356.32z"/>
	</g>
	<g>
		<g>
			<path class="st0" d="M428.93,151.77v67.57c0,4.97,1.67,7.78,5.01,8.43v2.69l-12.34,6.96c-1.79-0.73-3.46-1.93-5.01-3.6
				c-1.55-1.67-2.32-3.24-2.32-4.7v-67.57c0-4.97-1.67-7.78-5.01-8.43v-2.69l12.34-6.96c1.79,0.73,3.46,1.94,5.01,3.6
				C428.15,148.73,428.93,150.3,428.93,151.77z"/>
			<path class="st0" d="M458.86,151.77v67.57c0,4.97,1.67,7.78,5.01,8.43v2.69l-12.34,6.96c-1.79-0.73-3.46-1.93-5.01-3.6
				c-1.55-1.67-2.32-3.24-2.32-4.7v-67.57c0-4.97-1.67-7.78-5.01-8.43v-2.69l12.34-6.96c1.79,0.73,3.46,1.94,5.01,3.6
				C458.09,148.73,458.86,150.3,458.86,151.77z"/>
			<path class="st0" d="M504.08,167.78c0.41,0,1.42,0.63,3.05,1.89c1.63,1.26,3.26,3.02,4.89,5.25c1.63,2.24,2.44,4.42,2.44,6.54
				v20.53c0,1.47-2.16,3.26-6.48,5.38c-4.32,2.12-8.49,3.85-12.52,5.19c-4.03,1.34-6.21,2.02-6.54,2.02
				c0,6.27,2.73,10.14,8.19,11.61c2.69,0.65,5.9,0.98,9.65,0.98v3.54c-13.36,4.48-20.49,6.72-21.38,6.72
				c-2.44,0-4.93-1.73-7.45-5.19c-2.53-3.46-3.79-7.52-3.79-12.16v-41.06c0-0.57,4.64-2.58,13.93-6.05
				C497.36,169.51,502.69,167.78,504.08,167.78z M498.21,181.4c-1.06-1.59-2.4-2.38-4.03-2.38s-3.42,0.61-5.38,1.83v28.23
				c7.33-2.04,11-6.43,11-13.2v-8.68C499.8,184.93,499.27,182.99,498.21,181.4z"/>
			<path class="st0" d="M529.12,229.12v-41.42c0-2.69-0.57-5.01-1.71-6.96c-1.14-1.96-2.57-2.93-4.28-2.93v-2.69
				c0.57-0.08,5.01-2.57,13.32-7.45c0.57,0.16,1.26,0.39,2.08,0.67c0.81,0.29,1.89,1.08,3.24,2.38c1.34,1.3,2.02,2.81,2.02,4.52
				c0.49-0.24,1.87-1.02,4.15-2.32c6.03-3.42,9.61-5.13,10.75-5.13c2.61,0,5.05,1.71,7.33,5.13c2.28,3.42,3.42,6.56,3.42,9.41v37.03
				c0,4.48,2,7.13,5.99,7.94v2.69l-13.32,7.45c-1.79-0.73-3.46-1.93-5.01-3.6c-1.55-1.67-2.32-3.24-2.32-4.7v-35.44
				c0-4.56-0.51-8.04-1.53-10.45c-1.02-2.4-2.83-3.6-5.44-3.6l-4.03,0.73v38.98c0,4.97,1.67,7.78,5.01,8.43v2.69l-12.34,6.96
				c-1.79-0.73-3.46-1.93-5.01-3.6C529.9,232.15,529.12,230.59,529.12,229.12z"/>
			<path class="st0" d="M396.35,207.4c-1.99-18.73-2.97-31.11-3.56-39.43c-0.2-2.72-0.7-5.42-1.61-7.98
				c-8.54-23.8-37.13-6.75-42.98-19.09c0,0-3.97,17.59,12.97,20.33c0,0,1.88,12.69-7.64,16.65c-4.51,1.88-10.73,2.05-15.79,4.83
				c-5.63,3.09-9.79,9.04-7.93,16.36c3.54,13.92,17.67,10.17,18.17,3.24c0.5-6.92-2.7-7.92-4.72-6.78c-1.71,0.98-1.16,3.8,0.48,5.23
				c1.48,1.29,1.37,3.7-0.18,4.91c-3.61,2.82-12.95-0.62-11.51-10.79c2.25-15.82,24.79-11.9,23.31-0.56
				c-1.26,9.62-4.01,22.86-4.82,26.67c-8.55,2.48-10.77,9.56-10.27,15.44c13.5-8.22,30.9,2.4,30.9,2.4L380.2,225
				c-5.03-1.85-9.46-3.11-13.37-3.89l2.26-12.66c4.4,0,9.21,0,12.11,0c2.41,13.45,6.86,25.68,17.01,30.35l9.37-15.96
				C403.18,223.61,397.78,220.84,396.35,207.4z M374.02,163.39l-5.95,33.38h-5.56l6.93-36.45
				C371.39,160.31,372.87,161.43,374.02,163.39z M363.82,220.58c-2.09-0.31-3.99-0.46-5.75-0.48l2.22-11.66c1.23,0,3.29,0,5.7,0
				L363.82,220.58z M371.17,196.76l4.94-27.68c1.67,6.91,2.26,17.12,3.44,27.68H371.17z"/>
			<path class="st0" d="M568.98,213.54c0.32-5.6,1.31-10.78,2.67-13.99c3.82-9.01,10.24-6.12,10.24-6.12s-3.31-7.96-12.64-2.96
				c0,0,0-1.05,0.02-2.65h0L568.98,213.54z"/>
		</g>
		<g>
			<path class="st0" d="M177.73,176.09v43.26c0,4.97,1.67,7.78,5.01,8.43v2.69l-12.34,6.96c-1.79-0.73-3.46-1.93-5.01-3.6
				c-1.55-1.67-2.32-3.24-2.32-4.7v-43.26c0-4.97-1.67-7.78-5.01-8.43v-2.69l12.34-6.97c1.79,0.73,3.46,1.94,5.01,3.6
				C176.96,173.05,177.73,174.62,177.73,176.09z"/>
			<path class="st0" d="M233.45,175.96v48.51c0,3.1-1.39,7.51-4.15,13.26c-2.77,5.74-5.7,10.79-8.8,15.15
				c-3.1,4.36-5.21,6.54-6.35,6.54c-2.04,0-4.77-0.61-8.19-1.83c-3.42-1.22-6.35-2.44-8.8-3.67l-3.54-1.83v-3.67h4.15
				c3.18,0,6.8-1.81,10.88-5.44c4.07-3.63,7.45-8.45,10.14-14.48c-9.21,4.32-14.5,6.48-15.89,6.48c-2.53,0-4.79-1.61-6.78-4.83
				c-2-3.22-2.99-6.82-2.99-10.81v-33.6c0-4.48-2-7.13-5.99-7.94v-2.69l13.32-7.45c1.79,0.73,3.46,1.94,5.01,3.6
				c1.55,1.67,2.32,3.24,2.32,4.7v33.12c0,5.7,0.89,9.51,2.69,11.43c1.79,1.92,4.56,2.87,8.31,2.87v-37.64
				c0-4.97-1.67-7.78-5.01-8.43v-2.69l12.34-6.96c1.79,0.73,3.46,1.94,5.01,3.6C232.68,172.93,233.45,174.5,233.45,175.96z"/>
			<path class="st0" d="M286.61,183.91v34.58c0,3.01,0.49,5.11,1.47,6.29c0.98,1.18,2.48,2.02,4.52,2.5v2.69l-13.32,7.45
				c-1.79-0.73-3.46-1.93-5.01-3.6c-1.55-1.67-2.32-3.2-2.32-4.58l-15.27,8.19c-0.24-0.16-0.61-0.39-1.1-0.67
				c-0.49-0.28-1.32-0.89-2.51-1.83c-1.18-0.94-2.22-1.93-3.11-2.99c-2.44-2.69-3.67-5.74-3.67-9.16v-20.04
				c0-1.3,2.12-2.97,6.35-5.01c4.24-2.04,8.47-3.71,12.71-5.01l6.48-2.08c0-4.64-1.22-7.88-3.67-9.71s-7.17-2.75-14.17-2.75v-3.67
				c12.63-4.48,19.71-6.72,21.26-6.72c2.69,0,5.25,1.75,7.7,5.25C285.39,176.53,286.61,180.16,286.61,183.91z M262.84,223.56
				c1.26,1.34,2.67,2.02,4.21,2.02s3.18-0.61,4.89-1.83v-27.62c-2.04,0.73-3.56,1.34-4.58,1.83c-1.02,0.49-2.1,1.26-3.24,2.32
				c-2.12,1.96-3.18,5.34-3.18,10.14v7.94C260.95,220.49,261.58,222.21,262.84,223.56z"/>
			<g>
				<path class="st0" d="M133.7,188.41c13.89-8.96,16.04-25.92,10.64-36.07c-2.44-4.59-7.34-7.33-12.54-7.33l-7.95,0l-12.17,15.52
					c0-0.51,0-1.01,0-1.48c0-15.95-10.61-15.95-10.61-15.95c-3.82,3.51-7.55,7.84-11.22,12.74c5.98-1.47,8.87,4.6,8.96,8.08
					c0.07,2.65,0.15,17.17,0.15,17.17c-9.33-5-12.64,2.96-12.64,2.96s6.42-2.89,10.24,6.12s4.75,33.75-4.07,39.19
					c-9.98,6.16-15.71-2.05-15.31-6.47c0.41-4.41,4.43-5.41,6.81-3.36c1.93,1.67,3.8-1.35,1.25-3.21c-2.29-1.68-9.99-0.54-8.92,8.72
					c1.08,9.26,10.1,12.5,19.91,9.34c9.81-3.16,20.26,4.27,20.26,4.27c2.25-5.58,7.35-10.14,7.35-10.14
					c-5.32-6.27-17.72-5.95-17.72-5.95c2.62-2.06,5.55-5.98,5.55-13.77c0,0,0-22.79,0-39.77l7.91-10.51
					c21.1-1.18,14.88,21-0.94,32.22c-1.26,0.89-0.14,1.28-1.51,2.02l0.98,4.26c19.79-8.03,1.57,24.1,22.66,40.86l17.27-16.83
					C134.02,224.96,151.81,192.26,133.7,188.41z"/>
				<g>
					
						<rect x="84.07" y="189.96" transform="matrix(0.0366 -0.9993 0.9993 0.0366 -77.2625 302.7712)" class="st0" width="68.66" height="3"/>
				</g>
			</g>
			<path class="st0" d="M232.92,213.54c0.32-5.6,1.31-10.78,2.67-13.99c3.82-9.01,10.24-6.12,10.24-6.12s-3.31-7.96-12.64-2.96
				c0,0,0-1.05,0.02-2.65h0L232.92,213.54z"/>
			<path class="st0" d="M168.63,162.46c-1.7-7.12-6.07-11.11-12.34-12.86c7.2-1.25,11.61-7.05,12.34-14.77
				c0.73,7.72,5.14,13.52,12.34,14.77C174.7,151.35,170.33,155.34,168.63,162.46z"/>
		</g>
	</g>
</g>
</svg>
