<?xml version="1.0" encoding="utf-8"?>
<!-- Generator: Adobe Illustrator 25.2.0, SVG Export Plug-In . SVG Version: 6.00 Build 0)  -->
<svg version="1.1" id="Layer_1" xmlns="http://www.w3.org/2000/svg" xmlns:xlink="http://www.w3.org/1999/xlink" x="0px" y="0px"
	 viewBox="0 0 431.44 581.29" style="enable-background:new 0 0 431.44 581.29;" xml:space="preserve">
<style type="text/css">
	.st0{fill:none;}
	.st1{fill:#353535;}
</style>
<polyline class="st0" points="214.44,386.95 214.27,384.16 214.07,380.63 213.97,379.02 "/>
<g>
	<g>
		<g>
			<path class="st1" d="M389.21,289.67c-1.18-0.76-1.83,0.3-2.39,1.14c-1.64,2.53-3.26,5.08-4.84,7.65
				c-2.91,4.7-5.78,9.42-8.65,14.16c-0.33,0.53-0.49,1.16-0.73,1.74c-0.33-0.2-0.66-0.41-0.99-0.61c-0.15-0.67-0.49-1.36-0.43-2.02
				c0.27-3.11,0.32-6.31,1.06-9.32c3.19-13.07,6.2-26.17,7.95-39.52c0.44-3.36,0.9-6.77,0.77-10.13c-0.19-5.16-4.42-7.25-8.74-4.48
				c-1.35,0.85-2.64,2.02-3.54,3.34c-1.56,2.26-3.12,4.62-4.11,7.17c-3.59,9.13-6.35,18.52-7.87,28.27
				c-0.61,3.95-1.7,7.86-3.01,11.65c-0.91,2.61-1.89,5.36-4.01,7.68c-2.62-3.84-2.92-8.02-3.12-12.12
				c-0.65-13.05-1.16-26.12-1.64-39.19c-0.1-2.9-0.92-5.43-2.73-7.66c-1.95-2.4-3.52-2.66-6.26-1.31c-2.27,1.12-3.68,2.94-4.65,5.23
				c-1.81,4.26-1.98,8.82-2.34,13.32c-0.5,6.14-0.83,12.29-1.12,18.44c-0.38,7.78-0.52,15.58-0.99,23.35
				c-0.31,5.14-0.83,10.26-1.59,15.34c-0.5,3.29-2.02,6.29-4.33,9.08c-3.34-4.79-4.23-10.2-6.03-15.26
				c-1.82-5.08-3.79-10.1-5.87-15.62c6.94-11.88,12.53-24.63,15.76-38.31c2.45-10.46,3.09-21.17,3.12-31.86
				c0.02-8.53-0.44-17.1-1.22-25.6c-0.4-4.33-2.2-8.5-2.91-12.82c-2.34-14.39-8.92-26.3-20.18-35.61c-0.67-0.56-1.24-1.24-1.81-1.91
				c-3.39-4.03-7.69-6.59-12.9-7.04c-2.59-0.23-3.83-1.26-4.6-3.53c-0.48-1.41-1.11-2.82-1.93-4.07c-1.44-2.2-2.66-4.87-4.7-6.27
				c-4.53-3.1-9.33-5.98-14.36-8.16c-11.58-5.02-23.84-4.6-36.05-3.29c-7.11,0.75-14.13,2.34-21.25,3.19
				c-9.53,1.14-18.88,2.9-27.9,6.23c-16.19,5.96-30.07,15.08-40.44,29.13c-3.79,5.15-6.54,10.74-7.49,17.1
				c-0.81,5.46-1,11.07-2.25,16.43c-2.54,10.99-2.03,21.94-0.81,32.97c0.4,3.64,0.17,7.08-1.23,10.67
				c-3.48,8.95-4.44,18.28-2.45,27.8c0.2,0.97,0.42,2.02,0.27,2.98c-1.26,8.21-2.7,16.37-6.99,23.72
				c-3.06,5.25-6.73,10.01-10.95,14.37c-1.66,1.72-3.35,3.42-4.86,5.26c-0.47,0.56-0.39,1.57-0.55,2.37c0.91,0.1,1.91,0.49,2.7,0.22
				c1.02-0.34,1.9-1.18,2.82-1.85c2.31-1.68,4.59-3.39,7.58-5.6c-2.39,5.31-4.66,9.75-6.39,14.39c-1.7,4.58-3.15,9.31-4.18,14.08
				c-1.03,4.79-2.43,9.62-1.97,14.51c1.95,0.64,2.47-0.43,2.97-1.47c0.78-1.58,1.49-3.19,2.3-4.76c1-1.93,2.16-3.76,4.16-5.04
				c-5.82,11.77-8.45,23.89-5.15,36.8c-8.93,0-17.6-0.02-26.27,0.01c-2.76,0.01-5.52,0.12-8.27,0.28c-0.92,0.06-1.87,0.53-1.51,1.65
				c0.17,0.49,1.08,1.03,1.67,1.05c6.66,0.14,13.32,0.26,19.96,0.22c5.54-0.03,11.2-1.09,16.57-0.23c4.5,0.74,7.42-1.18,10.57-3.19
				c2.42-1.55,4.5-3.61,6.73-5.46c0.84-0.69,1.67-1.41,2.86-2.42c2,2.4,4.08,4.43,5.64,6.81c6.51,9.94,15.25,17.41,25.74,22.68
				c6.16,3.1,12.6,5.75,19.11,8.02c10.62,3.7,21.64,4.28,32.79,3.01c0.84-0.09,1.7-0.01,2.76-0.01c-0.3,1.35-0.63,2.54-0.76,3.76
				c-0.05,0.37,0.41,1.11,0.68,1.15c0.52,0.05,1.17-0.19,1.57-0.53c0.34-0.28,0.48-0.86,0.61-1.34c0.6-2.17,1.22-4.23,3.01-5.9
				c0.98-0.92,1.22-2.62,1.85-4.14c-1.12-0.65-2.06-1.18-3.09-1.78c0.1-1.15,0.22-2.23,0.33-3.48c3.62,0.92,6.99,1.87,10.4,2.61
				c4.82,1.06,9.34,0.35,12.88-3.32c2.95-3.07,6.19-6.08,8.27-9.7c2.76-4.83,6.59-5.46,11.33-4.75c0.87,0.12,1.74,0.24,2.61,0.37
				c6.35,1.05,11.85,3.97,17.09,7.58c5.28,3.65,10.69,7.1,16.08,10.59c1.08,0.69,2.22,1.87,3.73,0.52c0.34-1.62-0.99-2.09-2-2.76
				c-4.31-2.83-8.59-5.71-12.96-8.44c-1.57-0.98-2.15-2.17-2.32-3.95c-0.83-8.28-1.05-16.55-0.01-24.85
				c0.99-7.98,1.49-16.03,3.73-23.81c0.98-3.4,2.95-6.2,5.09-9c-0.11,3.92-0.55,7.74-0.85,11.58c-0.22,2.62-0.3,5.27-0.34,7.91
				c-0.02,1.14,0.16,2.55,1.66,2.39c0.57-0.06,1.28-1.35,1.43-2.17c0.4-2.23,0.45-4.51,0.76-6.75c0.56-4.18,0.68-8.46,2.79-13.19
				c0.68,2.32,1.3,3.93,1.64,5.59c2.58,12.3,5.04,24.62,7.68,36.9c1.51,7.01,3.04,14.04,7.17,20.12c0.76,1.12,1.68,2.24,2.75,3.04
				c0.9,0.68,1.92,0.47,2.26-1.14c-3.95-3.64-5.96-8.49-7.23-13.65c-1.78-7.32-3.73-14.62-5.01-22.04
				c-2.28-13.28-4.91-26.44-9.67-39.09c-0.49-1.27-0.74-2.68-0.84-4.04c-0.28-3.61-0.52-7.23-0.61-10.84
				c-0.08-3.58-0.65-7.2,0.47-11.1c4.33,1.32,6.91,4.23,8.7,7.66c2.2,4.22,3.94,8.69,5.83,13.08c0.36,0.86,0.5,1.84,0.69,2.6
				c-1.87,1.49-5.1,0.72-5.42,4.34c2.37-0.37,4.48-0.72,6.66-1.07c0.68,2.23,1.22,4.03,1.77,5.83c1.86,6.09,4.64,11.7,8.96,16.41
				c1.25,1.35,2.92,2.35,4.52,3.31c0.99,0.59,2.2,0.74,2.92-1.15c-1.14-0.84-2.34-1.75-3.58-2.67c1.51-1.37,4.34-0.8,4.49-3.53
				c-1.52-1.39-2.67,0.22-3.94,0.25c-1.3,0.02-2.99,0.5-3.82-0.12c-1.53-1.15,0.07-2.47,0.69-3.58c2.28-3.97,4.09-8.11,4.56-12.69
				c0.44-4.36,0.73-8.76,0.94-13.15c0.31-6.15,0.36-12.3,0.74-18.44c0.23-3.91,1.23-4.61,5.19-4.48c0.75,0.02,1.5,0.27,2.24,0.2
				c1.23-0.09,1.68-0.81,1.3-2.34c-2.6-0.19-5.16-0.37-7.86-0.58c-0.02-0.08-0.2-0.44-0.2-0.8c0.09-3.52,0.14-7.04,0.35-10.55
				c0.18-3.03,0.49-3.25,3.54-3.84c1.4-0.27,3.06-0.06,3.74-1.94c-1.98-2.22-4.33,0.18-6.33-0.56c-0.39-7.61,1.74-12.1,6.49-13.69
				c1.82,1.31,2.89,3.1,3.06,5.34c0.3,3.89,0.51,7.77,0.68,11.67c0.5,10.79,0.89,21.6,1.47,32.4c0.2,3.92,1.15,7.71,3.65,10.92
				c1.51,1.93,2.44,2.14,4.68,1.31c0.47-1.75,0.64-3.34,1.31-4.68c2.92-5.77,5-11.79,5.84-18.22c0.16-1.2,0.53-2.39,0.85-3.75h6.61
				c-1.1-3.39-4.27-2-6.23-3.54c1.65-5.49,3.33-11.09,5.14-17.08c2.19,0.52,3.85,1,5.53,1.28c0.62,0.1,1.32-0.25,1.98-0.4
				c-0.4-0.66-0.64-1.64-1.22-1.91c-1.55-0.72-3.23-1.12-5.09-1.74c1.7-3.53,3.23-6.85,6.34-9.01c2.52-1.76,4.43-0.86,4.67,2.12
				c0.11,1.37,0.08,2.78-0.11,4.15c-1.08,7.33-1.98,14.7-3.4,21.97c-1.73,8.75-3.99,17.38-5.84,26.11
				c-0.49,2.31-0.56,4.75-0.44,7.11c0.11,2.74,1.37,5.1,3.62,6.75c0.53,0.39,1.45,0.26,2.32,0.39c-0.43-3.1-0.39-3.07,0.99-5.12
				c1.83-2.72,3.62-5.44,5.36-8.21c2.87-4.58,5.7-9.18,8.53-13.78C389.71,291.45,390.36,290.42,389.21,289.67z M139.88,161.82
				c6.94-9.12,15.19-16.75,25.44-22.04c7.61-3.93,15.46-7.25,23.8-9.35c0.56-0.14,1.16-0.14,1.74-0.2c0.02,0.14,0.06,0.26,0.09,0.4
				c-1.37,0.56-2.76,1.12-4.14,1.69c-13.99,5.75-26.43,13.94-37.54,24.13c-6.08,5.57-10.96,12.09-14.6,19.52
				c-0.41,0.84-0.97,1.6-1.62,2.32C133.71,172.1,136.18,166.68,139.88,161.82z M125.14,255.68c0.26-6.68,1.36-12.6,3.64-18.22
				c0.74-1.82,1.83-3.62,3.18-5.03c2.28-2.4,4.96-2.48,7.36-0.23c1.6,1.52,3.12,3.35,4.03,5.34c3.7,8.08,5.29,16.72,6.28,25.48
				c0.19,1.68-0.35,3.47-0.61,5.2c-0.69,4.59-1.53,9.16-2.09,13.76c-0.32,2.69-1.7,4.32-4.03,5.41c-2.52,1.19-4.35-0.01-6.06-1.67
				c-0.72-0.69-1.42-1.43-2.01-2.23C128.62,275.04,125.49,265.54,125.14,255.68z M214.26,403.9c-1.59,0.31-3.05,0.73-4.51,0.85
				c-12.96,1.06-25.61-0.07-37.63-5.54c-6.51-2.97-13.3-5.36-19.19-9.57c-6.58-4.7-12.51-10.05-17.1-16.81
				c-1.83-2.68-4.04-5.1-6.15-7.74c7-7.69,8.41-17.92,11.05-27.46c3.04-10.98,4.91-22.28,7.28-33.45c0.18-0.81,0.44-1.6,0.68-2.49
				c1.22,6.73,1.77,13.45,3.71,19.76c3.25,10.57,7.56,20.69,15.86,28.63c9.63,9.2,18.95,18.74,28.42,28.11
				c3.22,3.18,6.32,6.48,9.71,9.44c2.73,2.36,5.81,4.32,8.88,6.56C214.96,397.22,214.62,400.43,214.26,403.9z M289.8,246.95
				c2.31,1.73,4.68,3.4,6.85,5.29c3.25,2.83,4.79,6.23,3.31,10.68c-1.34,4.01-2.35,8.12-3.69,12.84c-1.61-1.43-2.84-2.28-3.77-3.39
				c-4.07-4.87-9.12-6.91-15.42-5.68c-0.47,0.09-0.97-0.03-1.37-0.06c-1.66-3.66,0.41-7.16,0.51-11.48
				c-1.3,0.83-2.31,1.09-2.51,1.66c-0.64,1.74-1.45,3.62-1.33,5.4c0.3,4.24,0.89,8.48,1.74,12.65c0.8,3.93,2.16,7.74,3.11,11.65
				c1.09,4.49,1.16,8.98-0.89,13.28c-1.24,2.61-2.76,3.36-6.17,3.1c-3.18-0.24-4.62-1.43-5.62-4.07c-0.45-1.19-1.3-2.39-2.27-3.22
				c-2.99-2.54-6.75-3.18-10.46-3.89c-1.34-0.25-2.72-0.57-3.94-1.14c-2.48-1.17-3.87-3.14-3.73-6c0.03-0.62,0.24-1.32,0.05-1.86
				c-0.24-0.7-0.8-1.3-1.22-1.93c-0.5,0.48-1.36,0.9-1.45,1.44c-0.45,2.91-0.44,5.78,1.66,8.21c1.98,2.28,4.5,3.67,7.46,4.02
				c1.82,0.23,3.39,0.65,4.66,2.07c0.57,0.62,1.41,1.1,2.23,1.39c2.5,0.9,4.29,2.41,6.09,4.49c1.75,2.02,4.67,3.26,7.29,4.23
				c2.26,0.83,5.87-1.95,7.57-5.19c2.25-4.29,2.56-8.87,1.9-13.58c-0.16-1.09-0.39-2.17-0.62-3.58c1.76,0.57,3.12,1.18,4.57,1.41
				c0.82,0.13,2.31-0.16,2.51-0.66c0.53-1.33-0.77-1.5-1.75-1.75c-2.74-0.7-5.12-1.93-7.21-5.03c2.45,0.66,4.25,1.24,6.08,1.6
				c1.69,0.34,3.59,1.43,5.27-1.03c-1.09-0.58-2-1.06-3.14-1.65c0.92-1.25,1.83-2.5,3-4.09c1.62,1.51,3.42,2.85,4.71,4.58
				c0.62,0.82,0.62,2.47,0.32,3.58c-2.15,7.79-1.67,15.68-1.12,23.6c0.5,7.11-0.4,13.83-4.35,20.21
				c-7.01,11.33-13.91,22.71-22.38,33.05c-2.86,3.5-5.4,7.27-8.2,10.82c-1.12,1.42-2.09,3.07-4.29,3.4
				c-0.68,0.1-1.44,1.39-1.73,2.26c-1.77,5.7-5.89,9.92-9.27,14.55c-3.95,5.42-9.28,7.15-15.95,5.49c-7.2-1.8-13.91-4.31-19.3-9.62
				c-2.02-1.98-3.57-4.19-4.48-6.87c-0.31-0.9-0.82-1.74-1.35-2.85c-0.9,0.56-1.5,0.94-2.18,1.37c-0.24-0.15-0.6-0.27-0.84-0.51
				c-10.26-10.19-20.68-20.22-30.7-30.65c-8.31-8.65-12.18-19.44-11.9-31.29c0.24-10.02,1.53-20.03,2.59-30.03
				c0.62-5.86,1.65-11.69,2.59-17.51c0.37-2.35,0.8-4.73,1.56-6.96c2.43-7.14,4.92-14.26,7.6-21.3c1.24-3.25,3-6.32,4.97-9.26
				c-1.02,4.85-2.2,9.68-3.04,14.55c-0.77,4.45-1.22,8.96-1.77,13.45c-0.09,0.74-0.16,1.55,0.02,2.24c0.14,0.5,0.83,1.31,1.09,1.24
				c0.6-0.15,1.25-0.65,1.59-1.18c0.32-0.49,0.22-1.22,0.34-1.83c3.04-14.39,9.09-27.64,15.5-40.75c0.2-0.43,0.49-0.83,0.89-1.49
				c0.42,3.27-3.5,5.73-0.94,9.7c1.27-1.73,2.34-2.9,3.1-4.25c5.51-9.73,12.52-18.2,20.86-25.63c2.01-1.78,4.17-3.08,6.76-3.91
				c9.41-3.01,17.52-8.08,24.15-16.08c0.75,1.73,1.35,3.16,2,4.57c2.07,4.44,4.14,8.88,6.23,13.3c0.37,0.8,0.8,1.64,1.41,2.22
				c0.44,0.42,1.26,0.44,1.91,0.64c0.19-0.65,0.65-1.35,0.55-1.95c-0.66-3.69-1.56-7.35-2.12-11.05c-0.4-2.59-0.39-5.24-0.03-8.04
				c0.35,0.66,0.82,1.27,1.06,1.98c3.91,11.2,9.67,21.53,15.17,31.98c0.24,0.44,0.42,1.02,0.8,1.26c0.56,0.34,1.32,0.66,1.91,0.56
				c0.35-0.07,0.8-1,0.76-1.51c-0.07-0.99-0.45-1.94-0.7-2.92c-0.59-2.27-1.18-4.56-1.16-7.23c1.12,1.11,2.39,2.11,3.34,3.34
				c3.1,3.97,6.09,8.01,9.11,12.02c4.1,5.46,8.76,10.38,14.09,14.64c1.6,1.27,2.55,2.73,2.56,4.74c0.02,4.22,0.01,8.43-0.53,12.96
				c-1.02-1.49-2.07-2.97-3.08-4.47c-1.44-2.12-3.14-3.97-5.66-4.77c-2.26-0.74-3.17-0.23-3.97,2.06
				C286.22,243.2,286.68,244.62,289.8,246.95z M285.28,270.01c-0.09,1.05-0.15,1.78-0.26,3.07
				C283.71,271.67,283.44,270.91,285.28,270.01z M303.9,291.96c9.85-18.06,17.1-37.14,20.92-58.2c0.26,23.06-6.17,43.54-17.08,63.23
				C306.36,295.18,305.2,293.65,303.9,291.96z"/>
		</g>
		<g>
			<path class="st1" d="M397.43,525.64c-1.68-5.1-3.52-10.12-9.62-11.53c-5.39-1.24-10.75-2.59-16.16-3.67
				c-3.82-0.76-7.68-1.32-11.55-1.67c-4.84-0.44-9.71-0.58-14.58-0.84c5.27-1.2,10.59-1.97,15.89-2.84
				c3.84-0.64,7.71-1.2,11.46-2.23c4.33-1.17,5.68-5.29,3.03-8.87c-0.94-1.27-2.22-2.56-3.62-3.18c-5.57-2.48-11.46-4.02-17.56-3.53
				c-11.02,0.89-21.9,3.26-33.04,2.89c-0.75-0.02-1.5,0.11-2.25,0.19c-6.63,0.62-13.28,1.24-19.91,1.9
				c-2.73,0.26-4.43-0.95-5.6-3.43c1-0.65,1.79-1.27,2.67-1.72c4.18-2.11,8.04-4.56,11.28-8.07c1.55-1.69,3.84-2.82,5.98-3.84
				c3.62-1.74,7.4-3.16,11.08-4.77c2.77-1.2,5.57-2.36,8.21-3.79c3.2-1.75,3.45-4.79,0.51-6.93c-1.48-1.07-3.33-1.77-5.12-2.18
				c-5.66-1.3-11.24-0.69-16.69,1.28c-10.37,3.75-21.15,6.56-29.88,13.94c-3.53,2.99-7.86,3.66-12.47,2.75
				c-7.52-1.48-15.08-2.77-22.61-4.19c-4.57-0.86-9.38-1.16-13.61-2.87c-5.44-2.23-11.03-3.34-16.71-4.39
				c-5.01-0.92-10.06-0.76-15.01,0.28c-3.49,0.74-6.98,2.17-8.78,5.36c-2.07,3.66-5.04,6.25-8.29,8.58
				c-10.09,7.2-18.77,15.97-27.48,24.68c-7.12,7.1-13.84,14.61-20.71,21.96c-0.92,1-3.07,1.93-1.51,3.51
				c1.3,1.31,2.49-0.52,3.36-1.42c4.49-4.59,8.96-9.18,13.28-13.93c10.93-12.03,22.52-23.35,35.4-33.3c2.57-1.98,5.35-4.04,7.02-6.7
				c2.31-3.69,5.45-5.57,9.38-6.2c5.1-0.82,10.25-0.82,15.38,0.27c5.41,1.15,10.6,2.94,15.87,4.51c6.24,1.86,12.76,2.79,19.19,3.97
				c6.92,1.26,13.9,2.28,20.83,3.5c7.33,1.3,12.99,5.08,16.93,11.46c0.69,1.14,1.78,2.07,2.8,2.98c3.93,3.49,6.24,7.92,8.28,12.84
				c-1.74,0.41-2.98,0.62-4.17,1c-3.77,1.2-7.27,2.87-9.65,6.24c-0.43,0.6-0.86,1.25-1.08,1.95c-0.11,0.37,0.14,1.18,0.41,1.28
				c0.48,0.19,1.18,0.12,1.67-0.09c0.4-0.19,0.65-0.75,0.92-1.17c1.98-3.01,4.94-4.61,8.25-5.61c2.67-0.81,5.44-1.1,8.1,0.13
				c3.99,1.85,8,3.67,11.91,5.68c4.23,2.17,8.4,4.47,12.1,8.1c-1.31,2.7-2.56,5.28-3.78,7.84c2.02,0.62,2.02,0.62,6.17-6.14
				c7.99,3.76,15.46,8.23,22,14.29c2.07,1.93,2.12,3.76,1.39,6.02c-0.19,0.58-0.72,1.08-0.85,1.67c-0.12,0.52,0.06,1.12,0.1,1.69
				c0.66-0.12,1.66-0.02,1.92-0.41c0.9-1.31,1.53-2.79,2.28-4.23c2.15,1.34,4.22,2.54,6.18,3.89c4.92,3.34,9.51,7.06,12.9,12.03
				c1.75,2.57,2.99,5.26,1.44,9.11c-1.47-0.39-2.87-0.49-4.01-1.1c-3.52-1.92-7-3.94-10.41-6.08c-4.14-2.6-7.98-5.77-12.32-7.99
				c-9.28-4.75-18.89-8.86-28.2-13.57c-10.11-5.12-20.54-9.55-31.27-13.04c-9.77-3.19-19.93-5.19-29.93-7.63
				c-1.08-0.26-2.28,0.01-3.45,0.03c0.07,2.19,1.36,2.07,2.41,2.32c6.24,1.45,12.49,2.93,18.71,4.42c0.77,0.18,1.51,0.53,2.26,0.81
				c-0.03,0.27-0.07,0.56-0.1,0.83c-1.44,0-2.91,0.16-4.33-0.02c-4.48-0.58-9.02-0.98-13.41-1.99c-11.13-2.59-22.21-5.42-33.29-8.27
				c-4.93-1.27-9.9-1.64-14.96-1.28c-6.35,0.43-12.08,2.47-16.75,6.87c-2.83,2.67-5.5,5.53-7.98,8.52
				c-3.45,4.16-6.83,8.41-9.94,12.83c-7.75,11-15.34,22.1-22.94,33.2c-0.39,0.57-0.55,1.89-0.19,2.28c0.98,1.1,1.83,0.1,2.4-0.7
				c1.75-2.47,3.52-4.91,5.09-7.49c8.59-14.11,18.85-27.01,29.03-39.96c1.01-1.28,2.17-2.45,3.26-3.68
				c6.65-7.45,15.17-10.36,24.81-9c8.32,1.18,16.51,3.24,24.71,5.12c5.62,1.3,11.13,3.14,16.77,4.42
				c5.87,1.34,11.88,2.77,17.91,1.42c4.49-1,8.51-0.78,12.74,1.1c5.84,2.61,12.02,4.47,17.84,7.1c9.4,4.25,18.52,9.08,27.91,13.28
				c7.85,3.51,15.28,7.57,22.18,12.74c3.58,2.68,7.7,4.77,11.8,6.61c4.27,1.9,6.7,0.09,7.03-4.61c0.23-3.34-1.17-6.11-3.03-8.71
				c-3.81-5.29-8.7-9.38-14.13-12.9c-1.91-1.23-3.81-2.47-5.57-3.87c-4.68-3.79-9.29-7.67-13.93-11.53c-0.25-0.2-0.4-0.56-0.86-1.24
				c1.5-0.1,2.7-0.32,3.89-0.26c13.19,0.53,26.39,1.08,39.57,1.74c2.11,0.1,4.01-0.15,5.77-1.26
				C397.05,528.33,397.92,527.14,397.43,525.64z M280.53,477.1c5.08-2.98,9.5-7.52,15.49-9.63c2.51-0.89,3.08-0.55,5.08,2.14
				c0.28,0.39,0.98,0.65,1.48,0.64c0.26,0,0.77-0.77,0.72-1.11c-0.2-1.2-0.6-2.37-1.08-4.11c5.11-1.61,10.16-3.67,15.41-4.7
				c3.59-0.7,7.46-0.08,11.2,0.15c1.64,0.1,3.11,0.9,4.09,2.95c-1.11,0.61-2.12,1.28-3.2,1.76c-5.51,2.47-11.09,4.76-16.54,7.34
				c-2.47,1.17-5.12,2.47-6.92,4.42c-3.86,4.19-8.68,6.74-13.34,9.27C288.76,483.16,284.76,480.2,280.53,477.1z M305.01,504.46
				c-1.5-2.74-3.26-5.96-5.23-9.55c3.07-0.28,5.77-0.56,8.48-0.8c4.64-0.39,9.26-0.85,13.91-1.1c4.1-0.22,4.59,0.3,5.5,4.42
				c0.16,0.68,0.51,1.33,0.98,2.47c3.03-2.29,0.84-4.5,0.89-6.74c4.43-0.57,8.9-1.09,13.35-1.73c2.1-0.3,3.72,0.09,4.49,2.31
				c0.16,0.45,0.51,0.89,0.89,1.19c0.24,0.2,0.78,0.35,1,0.23c0.36-0.24,0.83-0.75,0.78-1.07c-0.14-0.98-0.51-1.91-0.84-3
				c7.4-2.28,14.36-0.53,21.26,1.91c0.58,0.2,1.15,0.56,1.61,0.95c1.26,1.08,2.59,2.25,2.17,4.1c-0.43,1.9-2.11,2.27-3.78,2.53
				c-12.16,1.87-24.31,3.77-36.47,5.65c-0.61,0.1-1.24,0.06-1.85,0.02C323.24,505.68,314.34,505.08,305.01,504.46z M390.42,527.6
				c-15.92-1.43-31.83-2.66-47.83-1.23c-0.7,0.07-1.53-0.09-2.16-0.42c-2.43-1.31-5.06-2.41-7.16-4.15
				c-6.46-5.37-13.86-9.07-21.44-12.5c-0.78-0.36-1.56-0.77-3.11-1.55c1.5-0.16,2.26-0.35,3-0.3c6.52,0.47,13.05,0.85,19.55,1.5
				c5.64,0.56,6.21,1.27,7.44,7.11c0.12,0.56,0.48,1.06,0.74,1.64c1.82-1.4,1.82-1.4,1.16-6.92c6.31,0.2,12.57,0.36,18.83,0.62
				c2.14,0.09,4.26,0.37,6.39,0.65c2.58,0.34,4.51,1.45,4.93,4.33c0.08,0.57,0.49,1.08,0.77,1.67c2.73-0.59,1.51-2.51,1.65-4.49
				c4.2,0.93,8.09,1.9,12.02,2.62c5.66,1.03,8.08,4.92,9.36,9.94C393.42,527.62,391.98,527.74,390.42,527.6z"/>
		</g>
		<g>
			<path class="st1" d="M403.46,344.32c-4.52,4.86-10.49,7.44-12.7,13.76c-0.7,2-1.91,3.82-2.92,5.69c-0.49,0.91-1.14,1.94-2.27,1.1
				c-0.36-0.27-0.31-1.58-0.01-2.22c1.37-2.97,2.78-5.92,4.43-8.74c0.99-1.69,2.33-3.25,3.74-4.62c2.61-2.53,5.36-4.92,8.11-7.31
				c0.6-0.52,1.07-1.07,1.4-1.68L403.46,344.32z"/>
		</g>
		<g>
			<path class="st1" d="M285.71,503.67c-0.48-1.28-1.57-2.37-1.87-3.67c-1.27-5.26-5.02-8.46-9.41-10.7
				c-5.58-2.84-11.32-5.62-17.29-7.32c-6.78-1.92-13.52-3.79-19.89-6.83c-1.58-0.75-3.16-1.56-4.82-2.09
				c-0.65-0.2-1.51,0.25-2.27,0.41c0.37,0.69,0.69,1.42,1.15,2.06c0.19,0.27,0.64,0.39,0.99,0.52c5.34,2.17,10.54,4.84,16.05,6.36
				c7.77,2.15,15.44,4.43,22.67,8.03c1.51,0.75,2.91,1.74,4.36,2.61c-4-0.39-7.43-0.27-10.48,2.54c-3.1,2.86-2.04,6.76-2.84,10.52
				c-1.95-0.13-3.83-0.09-5.66-0.39c-6.56-1.05-13.1-2.24-19.66-3.32c-4.45-0.74-8.93-1.41-13.4-2.09c-1.24-0.18-2.52-0.36-3.1,1.75
				c1.01,0.27,1.89,0.6,2.79,0.75c7.57,1.2,15.13,2.34,22.7,3.56c4.94,0.8,9.85,2.06,14.83,2.45c6.5,0.53,13.05,0.43,19.59,0.58
				c0.75,0.02,1.51-0.03,2.25-0.16C285.8,508.72,286.93,506.9,285.71,503.67z M265.16,506.26c0.19-2.59,0.03-4.75,0.58-6.7
				c0.6-2.18,2.43-3.39,4.78-3.57c6.06-0.47,11.3,3.68,12.59,10.35C277.26,506.98,271.51,505.84,265.16,506.26z"/>
		</g>
		<g>
			<path class="st1" d="M352.16,346.77c0.74-3.5,1.32-6.26,1.87-8.89c2.2-0.27,2.27,0.97,2.08,2.11c-0.47,2.97-0.86,5.99-1.71,8.86
				c-0.71,2.4-0.54,4.63-0.17,7.02c0.89,5.82,2.06,11.66,0.54,17.57c-0.06,0.24-0.1,0.49-0.15,0.74c-0.24,1.11-0.42,2.54-1.94,2.19
				c-1.52-0.35-1.07-1.8-0.81-2.86c1.53-6.42,0.51-12.77-0.79-19.04c-1.38-6.65-3.65-13.04-6.67-19.16
				c-0.62-1.25-0.9-2.66-1.33-3.95c1.84-0.81,2.29,0.14,2.71,1.07c1.65,3.66,3.28,7.33,4.92,10.99
				C351.12,344.32,351.49,345.21,352.16,346.77z"/>
		</g>
		<g>
			<path class="st1" d="M391.96,311.82c1.14,1.14,0.42,2.11-0.09,3.11c-1.77,3.46-3.5,6.95-5.3,10.39
				c-1.57,3.01-1.22,5.72,1.09,8.59c4.16-1.67,7.93-3.82,11.48-6.39c1.04-0.75,2.06-1.66,3.33,0.31c-3.06,3.74-7.66,5.29-11.64,7.7
				c-0.17,0.89-0.34,1.77-0.65,3.38c-1.8-1.29-3.32-2.11-4.49-3.28c-3.02-3.02-3.51-7.49-1.55-11.26c1.73-3.34,3.35-6.74,5.07-10.09
				C389.81,313.14,390.12,311.56,391.96,311.82z"/>
		</g>
		<g>
			<path class="st1" d="M357.86,319.51c0.53,2.12,0.8,3.81,1.36,5.4c2.6,7.36,6.73,13.74,12.5,19.02c1.95,1.78,4.02,3.44,5.9,5.28
				c0.51,0.5,1,1.72,0.74,2.17c-0.69,1.17-1.73,0.55-2.55-0.1c-8.82-7.03-15.97-15.3-19.28-26.34
				C356.02,323.25,355.12,321.31,357.86,319.51z"/>
		</g>
		<g>
			<path class="st1" d="M186.33,490.9c-5.37,4.89-10.62,9.69-15.89,14.46c-3.07,2.78-6.14,5.55-9.29,8.22
				c-1.07,0.9-2.27,2.17-4.23,0.65c0.46-0.68,0.79-1.46,1.36-1.96c7.94-7.1,15.9-14.17,23.88-21.23
				C183.27,490.06,184.39,488.47,186.33,490.9z"/>
		</g>
		<g>
			<path class="st1" d="M175.71,506.71c-0.89,1.17-1.48,2.1-2.23,2.89c-5.75,6.13-11.51,12.26-17.33,18.33
				c-0.95,0.99-2.08,3.08-3.56,1.71c-1.62-1.5,0.61-2.58,1.51-3.54c5.86-6.2,11.8-12.33,17.73-18.47
				C172.71,506.72,173.44,505.25,175.71,506.71z"/>
		</g>
		<g>
			<path class="st1" d="M218,498.26c-2.25,1.67-5.13,0.89-8.11-2.13c0.53-0.32,1.07-0.91,1.46-0.83
				C213.72,495.83,216.09,496.46,218,498.26z"/>
		</g>
		<g>
			<path class="st1" d="M150.37,535.82c-1.75,1.94-3.02,3.34-4.2,4.65c-1.7-0.79-1.47-1.67-0.86-2.64
				C146.41,536.08,147.43,535.55,150.37,535.82z"/>
		</g>
		<g>
			<path class="st1" d="M370.1,284.02c-0.64,0.54-1.09,1.18-1.47,1.15c-0.39-0.04-1.01-0.74-1-1.15c0.01-0.41,0.62-1.09,1.03-1.14
				C369.02,282.83,369.47,283.49,370.1,284.02z"/>
		</g>
		<g>
			<path class="st1" d="M268.76,317.82c-1.49-4.01-3.78-7.01-7.93-8.43c-0.45-0.16-0.83-0.57-1.27-0.8
				c-4.07-2.05-8.2-3.85-12.94-3.57c-2.12,0.23-4.25,0.39-6.36,0.7c-7.38,1.09-14.26,3.9-21.19,6.5c-1.62,0.6-3.34,1.05-5.06,1.31
				c-3.64,0.55-3.95,0.86-3.22,4.67c0.78,4.06,1.74,8.08,2.53,12.13c1.99,10.18,5.92,19.44,12.92,27.2
				c3.95,4.4,8.69,7.62,14.67,8.61c4.39,0.73,8.65,0.28,12.07-2.79c5.1-4.61,8.92-10.25,11.42-16.63c1.91-4.86,3.51-9.86,4.97-14.88
				C270.71,327.16,270.49,322.49,268.76,317.82z M221.86,319.27c6.6,2.1,12.9,4.92,18.78,8.59c0.82,0.5,1.67,1.18,2.14,1.99
				c3.23,5.65,1.82,15.28-2.83,19.94c-9.77-2.25-24-14.61-25.39-30.76C217.02,317.91,219.5,318.5,221.86,319.27z M250.84,361.53
				c-3.31,2.66-7.33,2.43-11.18,1.44c-2.03-0.52-4.07-1.44-5.79-2.62c-7.77-5.33-12.33-12.94-15.57-22.38
				c4.01,3.58,7.29,6.85,10.93,9.68c4.1,3.19,8.83,5.18,14.02,6.11c5.89,1.06,10.91-0.59,15.41-4.31c0.52-0.43,1.07-0.84,1.82-1.06
				C258.1,353.43,255.17,358.05,250.84,361.53z M261.82,331.35c-0.75,1.24-1.83,2.29-2.93,3.65c-13.07-7.08-25.09-15.72-40.09-19.26
				c7.86-4.65,15.02-3.7,21.84,0.51c5.14,3.18,10.28,6.23,15.94,8.38c1.5,0.57,2.91,1.47,4.25,2.39
				C262.9,328.43,263.1,329.24,261.82,331.35z M267.18,327.81c-10.53-6.85-22.03-11.4-32.9-17.88c7.25-1.87,14.47-3.56,21.72-0.12
				c2.5,1.17,4.89,2.58,7.31,3.91c0.31,0.17,0.6,0.47,0.78,0.78C266.51,318.55,268.24,322.77,267.18,327.81z"/>
		</g>
		<g>
			<path class="st1" d="M225.09,210.12c-1.93,0.35-5.63,1.03-9.34,1.71c-0.86,0.16-1.73,0.46-2.59,0.43
				c-0.51-0.02-1.25-0.47-1.42-0.9c-0.18-0.45,0.08-1.2,0.37-1.69c0.23-0.4,0.75-0.69,1.2-0.88c4.15-1.77,8.25-3.72,12.5-5.19
				c4.04-1.4,8.23-1.15,12.16,0.66c4.9,2.27,9.75,4.64,14.57,7.09c3.58,1.82,7.08,3.83,10.6,5.78c0.99,0.55,2.02,1.06,2.89,1.77
				c2.42,1.98,2.51,3.67,0.4,5.97c-0.59,0.65-1.2,1.3-1.87,1.86c-1.91,1.59-2.61,1.63-4.67,0.21c-5.49-3.78-10.98-7.56-16.44-11.38
				C238.47,212.07,233.07,209.95,225.09,210.12z"/>
		</g>
		<g>
			<path class="st1" d="M247.24,248.73c-1.36-2.52-2.5-5.36-4.49-7.28c-5.36-5.18-11.77-8.49-19.44-8.85
				c-3.43-0.16-6.71-0.73-9.32-3.39c-0.92-0.95-1.82-3.09-3.5-1.77c-1.67,1.3,0.36,2.78,0.89,3.92c0.82,1.8,1.92,3.82,4.84,3.07
				c1.15-0.3,2.58,0.52,3.89,0.84c0.06,0.27,0.13,0.56,0.19,0.83c-1.06,0.68-2.11,1.36-3.4,2.19c5.44,5.69,12.01,8.48,19.26,9.91
				c0.12,0.03,0.3,0.07,0.37,0.01c0.45-0.34,1.06-0.62,1.28-1.09c0.14-0.25-0.25-1-0.59-1.2c-0.84-0.5-1.78-0.81-2.69-1.19
				c0.72-1.51,1.35-2.85,2.19-4.59c4.18,2.23,6.75,5.44,8.18,9.63c0.19,0.59,0.17,1.28,0.47,1.81c0.19,0.35,0.78,0.72,1.15,0.67
				c0.35-0.05,0.89-0.59,0.92-0.95C247.53,250.45,247.63,249.43,247.24,248.73z M233.18,240.85c-0.34,0.09-0.68,0.18-1.03,0.27
				c-0.19-0.98-0.39-1.95-0.68-3.45C233.94,238.57,233.72,239.66,233.18,240.85z"/>
		</g>
		<g>
			<path class="st1" d="M229.55,286.84c-2.58,1.55-4.73,2.77-6.81,4.09c-3.61,2.29-7.22,4.57-10.75,6.97
				c-3.6,2.45-5.41,5.8-4.84,10.29c0.09,0.7-0.29,2.02-0.71,2.14c-1.48,0.43-1.92-0.84-2.09-1.97c-0.67-4.62,0.82-8.74,4.44-11.39
				c5.36-3.92,11.17-7.23,16.83-10.73C226.92,285.45,227,285.59,229.55,286.84z"/>
		</g>
		<g>
			<path class="st1" d="M228.03,221.13c5.05,0,9.61,1.6,13.91,4.06c0.75,0.43,1.48,0.95,2.08,1.58c0.25,0.26,0.29,1.01,0.1,1.33
				c-0.2,0.33-0.9,0.65-1.23,0.54c-0.93-0.31-1.8-0.84-2.68-1.31c-5.2-2.77-10.59-4.49-16.57-3.13c-0.91,0.21-1.98,0.36-2.01-0.82
				c-0.01-0.58,0.91-1.54,1.56-1.7C224.76,221.29,226.41,221.29,228.03,221.13z"/>
		</g>
		<g>
			<path class="st1" d="M277.09,315.29c0.78,0.46,1.71,0.68,1.85,1.14c1.75,5.72,0.95,11.14-2.25,16.18
				c-0.3,0.47-1.24,0.53-1.88,0.77c-0.15-0.63-0.63-1.47-0.39-1.86c2.84-4.54,3.08-9.43,2.25-14.51
				C276.61,316.58,276.89,316.09,277.09,315.29z"/>
		</g>
		<g>
			<path class="st1" d="M238.09,254.74c-0.9,0.19-1.82,0.64-2.69,0.54c-4.95-0.55-9.42-2.41-13.42-5.37
				c-0.39-0.29-0.82-0.65-1.01-1.07c-0.18-0.39-0.25-1.05-0.04-1.35c0.22-0.31,0.86-0.51,1.28-0.46c0.45,0.05,0.9,0.41,1.3,0.7
				c3.82,2.77,7.99,4.6,12.74,5.07c0.64,0.06,1.23,0.59,1.84,0.91C238.09,254.05,238.09,254.39,238.09,254.74z"/>
		</g>
		<g>
			<path class="st1" d="M283.07,258.97c-0.48-2.18,0.81-2.33,1.9-2.44c3.79-0.39,10.51,3.89,11.81,7.53
				c0.16,0.46-0.06,1.19-0.36,1.62c-0.14,0.2-0.92,0.08-1.35-0.07c-0.32-0.11-0.62-0.44-0.82-0.75
				C291.62,260.91,287.9,258.97,283.07,258.97z"/>
		</g>
		<g>
			<path class="st1" d="M223.03,362.73c0.42,0.81,0.67,1.4,1.01,1.91c2.17,3.3,5.06,5.07,9.17,4.42c0.54-0.09,1.19,0.51,1.78,0.78
				c-0.39,0.56-0.73,1.56-1.19,1.62c-1.58,0.21-3.27,0.37-4.8,0.03c-2.76-0.62-5-2.26-6.62-4.63
				C221.67,365.8,221.04,364.73,223.03,362.73z"/>
		</g>
		<g>
			<path class="st1" d="M249.46,231.04c-1.02,0.53-1.57,1.05-1.93,0.95c-0.6-0.17-1.07-0.76-1.6-1.17c0.36-0.4,0.81-1.18,1.06-1.12
				C247.68,229.86,248.3,230.38,249.46,231.04z"/>
		</g>
		<g>
			<path class="st1" d="M142.55,259.95c1.39,1.58,2.87,2.84,3.8,4.42c1.48,2.52-0.21,5.32-3.07,5.27c-0.7-0.01-1.38-0.79-2.08-1.21
				c0.51-0.55,0.99-1.15,1.56-1.64c0.25-0.22,0.68-0.25,1.64-0.58c-1.31-1.32-2.35-2.45-3.47-3.48c-2.19-2.01-2.41-2.53-0.7-5.05
				c1.24-1.82,0.75-3.64,0.54-5.44c-0.45-3.79-1.73-5.91-4.15-7.43c-4.31,6.19-3.04,21.81,2.39,29.22
				c-0.63,1.58-1.85,1.35-2.63,0.44c-1.12-1.3-2.13-2.82-2.76-4.41c-2.06-5.25-2.33-10.79-2.04-16.34c0.14-2.74,0.56-5.5,1.19-8.16
				c0.43-1.82,1.37-3.64,3.62-3.87c2.2-0.23,3.46,1.29,4.51,2.89c2.37,3.6,3.15,7.65,2.93,11.87
				C143.78,257.6,143.02,258.73,142.55,259.95z"/>
		</g>
		<g>
			<path class="st1" d="M139.08,278.02c1.26,0.76,2.42,1.17,3.09,1.97c0.52,0.62,0.88,2.17,0.51,2.57
				c-0.62,0.68-1.91,1.13-2.86,1.04c-1.47-0.15-2.8-2.36-2.39-3.77C137.63,279.17,138.45,278.68,139.08,278.02z"/>
		</g>
	</g>
	<path class="st1" d="M393.33,309.79c-0.28,0-0.57-0.08-0.82-0.26c-0.64-0.45-0.79-1.34-0.34-1.98c2.09-2.96,4.2-6.01,6.28-9.06
		c7.3-10.7,9.86-15.17,11.91-20.79c2.92-8.02,2.06-10.27,1.56-10.86c-1.16-1.38-3.98-1.25-5.92-0.34c-2.11,0.98-3.03,2.87-4.87,6.63
		c-0.69,1.41-1.48,3.01-2.48,4.88c-1.91,3.54-4.06,7-6.39,10.27c-0.45,0.64-1.34,0.79-1.98,0.33c-0.64-0.45-0.79-1.34-0.33-1.98
		c2.26-3.18,4.35-6.53,6.2-9.97c0.98-1.82,1.75-3.39,2.43-4.78c2-4.08,3.21-6.54,6.22-7.95c2.91-1.36,7.16-1.44,9.29,1.08
		c1.17,1.39,2.34,4.31-1.06,13.66c-2.14,5.88-4.77,10.49-12.23,21.42c-2.09,3.07-4.22,6.13-6.31,9.1
		C394.21,309.58,393.77,309.79,393.33,309.79z"/>
	<path class="st1" d="M405.87,342.58c-0.43,0-0.85-0.19-1.13-0.56c-0.48-0.62-0.36-1.51,0.26-1.99c1.73-1.33,3.55-2.59,5.4-3.76
		c3.07-1.93,5.12-2.89,6.76-3.65c1.58-0.74,2.82-1.32,4.43-2.5c3.97-2.93,7.74-7.44,6.88-9.61c-0.6-1.53-3.51-2.28-5.38-2.32
		c-1.16-0.02-2.38,0.18-7.57,3.04c-2.68,1.48-5.36,3.09-7.97,4.78c-0.66,0.43-1.54,0.24-1.96-0.42c-0.43-0.66-0.24-1.54,0.42-1.96
		c2.67-1.73,5.41-3.37,8.14-4.88c5.35-2.96,7.1-3.45,9-3.4c2.38,0.05,6.73,0.98,7.96,4.12c2.12,5.39-6.82,12.18-7.84,12.94
		c-1.83,1.35-3.26,2.02-4.91,2.79c-1.65,0.77-3.53,1.65-6.45,3.48c-1.78,1.12-3.52,2.33-5.18,3.61
		C406.47,342.48,406.17,342.58,405.87,342.58z"/>
</g>
<path class="st1" d="M100.07,79.5c-1.94,20.34-13.56,35.65-32.55,38.94c16.53,4.62,28.05,15.13,32.55,33.9
	c4.49-18.78,16.02-29.28,32.55-33.9C113.63,115.15,102,99.85,100.07,79.5z"/>
<path class="st1" d="M132.61,54.47c-1.13,11.91-7.94,20.87-19.06,22.8c9.68,2.7,16.43,8.86,19.06,19.85
	c2.63-10.99,9.38-17.15,19.06-19.85C140.56,75.34,133.75,66.38,132.61,54.47z"/>
<g>
	<path d="M148.35,10.79l12.05,5.71l4.52-9.55l2.61,1.24L156.4,31.69l-2.61-1.24l5.44-11.49l-12.05-5.71l-5.44,11.49l-2.61-1.24
		L150.26,0l2.61,1.24L148.35,10.79z"/>
	<path d="M164.36,27.48c3.16-3.76,8.27-4.21,12.06-1.03c3.79,3.18,4.24,8.29,1.09,12.06c-3.16,3.76-8.27,4.16-12.04,1
		S161.2,31.24,164.36,27.48z M166.57,29.33c-2.56,3.05-1.71,6.4,0.5,8.26c2.24,1.88,5.69,2.07,8.22-0.94
		c2.56-3.05,1.79-6.38-0.48-8.29S169.1,26.31,166.57,29.33z"/>
	<path d="M186.65,36.84l1.8,2.15l-1.35,1.13c0.5-0.07,2.6-0.24,4,1.43c0.55,0.66,0.91,1.58,1.09,2.34l-2.79,0.61
		c-0.07-0.75-0.36-1.28-0.63-1.61c-0.73-0.87-1.54-1.1-2.23-1.08c-0.78,0.04-1.92,0.38-3.95,2.09l-6.55,5.48l-1.8-2.15L186.65,36.84
		z"/>
	<path d="M194.52,46.89l1.52,2.36l-1.48,0.95c0.51,0,2.61,0.09,3.78,1.93c0.46,0.72,0.71,1.68,0.79,2.46l-2.85,0.25
		c0.03-0.76-0.19-1.31-0.42-1.67c-0.61-0.95-1.38-1.29-2.07-1.36c-0.78-0.06-1.95,0.14-4.18,1.57l-7.19,4.61l-1.51-2.36
		L194.52,46.89z"/>
	<path d="M193.12,59.53c4.52-1.93,9.28-0.01,11.22,4.54c1.94,4.56,0.03,9.31-4.49,11.24c-4.52,1.93-9.26-0.04-11.18-4.56
		S188.6,61.46,193.12,59.53z M194.25,62.19c-3.66,1.56-4.42,4.94-3.29,7.59c1.15,2.69,4.13,4.43,7.76,2.88
		c3.66-1.56,4.49-4.88,3.33-7.61S197.87,60.64,194.25,62.19z"/>
	<path d="M208.74,77.99l0.63,2.74l-1.71,0.39c0.48,0.17,2.42,0.97,2.91,3.1c0.19,0.84,0.1,1.82-0.09,2.58l-2.77-0.73
		c0.28-0.7,0.26-1.3,0.17-1.72c-0.25-1.1-0.87-1.68-1.49-1.98c-0.71-0.32-1.88-0.53-4.47,0.06l-8.33,1.9l-0.63-2.74L208.74,77.99z"
		/>
	<path d="M212.13,100.88l-0.11,2.81l-1.87-0.07c0.64,0.53,2.18,2.04,2.08,4.73c-0.07,1.91-0.92,3.63-2.4,4.55
		c-1.24,0.77-2.57,0.84-4.36,0.77l-10.02-0.39l0.11-2.81l9.94,0.39c0.97,0.04,2.11,0,2.99-0.62c0.72-0.52,1.22-1.36,1.27-2.6
		c0.04-0.97-0.19-2.04-1.14-2.89c-1.24-1.14-3.15-1.29-4.32-1.34l-8.46-0.33l0.11-2.81L212.13,100.88z"/>
	<path d="M195.44,132.16c-0.76-0.67-1.53-1.59-2.05-2.56c-0.93-1.76-1.13-3.7-0.63-5.7c0.94-3.78,4.32-7.16,10.15-5.71
		c4.69,1.17,7.61,4.95,6.43,9.68c-0.77,3.06-2.76,4.62-4.36,5.22c-1.65,0.63-4.21,0.6-6.27,0l3.05-12.22
		c-3.26-0.77-5.9,0.94-6.58,3.66c-0.32,1.29-0.2,2.4,0.33,3.5c0.43,0.87,1.08,1.64,1.75,2.17L195.44,132.16z M201.68,130.86
		c2.57,0.16,4.66-1.29,5.24-3.6c0.58-2.31-0.69-4.64-2.93-5.64L201.68,130.86z"/>
	<path d="M204.84,140.64l-1.13,2.57l-1.61-0.7c0.28,0.42,1.37,2.22,0.49,4.22c-0.34,0.79-1,1.52-1.61,2.02l-1.79-2.23
		c0.64-0.4,0.99-0.89,1.16-1.28c0.45-1.04,0.31-1.87-0.02-2.48c-0.38-0.68-1.2-1.55-3.62-2.61l-7.82-3.43l1.13-2.57L204.84,140.64z"
		/>
	<path d="M203.25,168.91l-1.54,2.35l-23.78-15.58l1.54-2.35l1.89,1.24c-0.5-1.45-0.81-3.75,0.75-6.13c2.25-3.43,6.73-5.01,11.5-1.89
		c4.67,3.06,5.03,7.77,2.76,11.23c-1.71,2.61-4.07,3.07-5.29,3.16L203.25,168.91z M192.03,148.96c-2.9-1.9-6.16-1.7-8,1.1
		c-1.88,2.87-0.57,6.06,2.11,7.82c3.49,2.29,6.61,0.88,7.97-1.21C195.63,154.35,195.32,151.12,192.03,148.96z"/>
	<path d="M170.08,168.59c-0.79,0.7-2.05,0.63-2.75-0.16c-0.7-0.79-0.63-2.05,0.16-2.75c0.79-0.7,2.05-0.63,2.75,0.16
		C170.94,166.62,170.87,167.89,170.08,168.59z"/>
	<path d="M157.31,175.37l6.52,27.02l-17.63-16.46l-0.98,24.22l-14.28-23.84l2.74-1.14l9.2,15.77l0.83-21.12l15.42,14.38l-4.55-17.7
		L157.31,175.37z"/>
	<path d="M126.65,202.36l-2.59-15.98l2.77-0.45l2.59,15.98L126.65,202.36z M129.34,210.14c-1.08,0.17-2.11-0.57-2.28-1.65
		c-0.17-1.08,0.57-2.11,1.64-2.28c1.08-0.17,2.11,0.57,2.28,1.65S130.42,209.97,129.34,210.14z"/>
	<path d="M120.03,203.31l-2.81,0.04l-0.03-1.87c-0.5,0.67-1.91,2.29-4.61,2.34c-1.91,0.03-3.68-0.72-4.68-2.15
		c-0.84-1.2-0.98-2.52-1-4.31l-0.16-10.02l2.81-0.04l0.16,9.95c0.02,0.98,0.11,2.1,0.79,2.95c0.56,0.69,1.42,1.15,2.67,1.13
		c0.98-0.02,2.02-0.31,2.83-1.29c1.07-1.3,1.12-3.22,1.1-4.39l-0.14-8.46l2.81-0.04L120.03,203.31z"/>
	<path d="M97.88,210.63c-1.08-0.14-1.86-1.15-1.72-2.23s1.15-1.86,2.23-1.72c1.08,0.14,1.86,1.15,1.72,2.23
		C99.96,210,98.96,210.78,97.88,210.63z M97.53,202.41l2.09-16.05l2.79,0.36l-2.09,16.05L97.53,202.41z"/>
	<path d="M90.34,201.68l-2.66-0.89l0.54-1.63c-1.27,0.97-2.85,1.27-4.48,0.72c-2.77-0.93-3.23-3.26-3.35-3.88
		c-2.26,1.84-4.42,1.28-5.45,0.93c-4.55-1.52-3.72-5.48-2.99-7.66l3.25-9.73l2.66,0.89l-3.12,9.32c-0.58,1.74-1.13,4.11,1.39,4.95
		c3.07,1.03,4.39-1.82,5.01-3.67l2.86-8.54l2.66,0.89l-3.04,9.1c-0.36,1.07-1.46,4.24,1.35,5.18c3.03,1.02,4.42-2.02,5.04-3.87
		l2.8-8.36l2.66,0.89L90.34,201.68z"/>
	<path d="M52.75,184.19l-2.34-1.55l8.94-13.49l2.34,1.55l-1.25,1.89c1.45-0.49,3.75-0.79,6.12,0.78c3.41,2.26,4.97,6.76,1.83,11.51
		c-3.08,4.65-7.8,4.99-11.24,2.7c-2.6-1.72-3.05-4.08-3.13-5.3L52.75,184.19z M65.99,183.27c1.92-2.89,1.74-6.15-1.06-8
		c-2.86-1.9-6.06-0.6-7.83,2.07c-2.31,3.48-0.91,6.6,1.17,7.98C60.58,186.85,63.82,186.56,65.99,183.27z"/>
	<path d="M35.01,185.19l19.22-20.95l2.07,1.9l-19.22,20.95L35.01,185.19z"/>
	<path d="M31.99,176.21c-0.74-0.81-0.68-2.07,0.13-2.81c0.81-0.74,2.07-0.68,2.81,0.13s0.68,2.07-0.13,2.81
		C33.99,177.07,32.72,177.01,31.99,176.21z M37.04,169.71L49,158.81l1.89,2.08l-11.96,10.9L37.04,169.71z"/>
	<path d="M32.03,157.18c-0.54,0.86-0.63,1.93-0.02,2.79c0.59,0.83,1.61,1.25,2.62,0.53c0.95-0.68,0.79-1.52,0.36-3.46
		c-0.56-2.47-0.59-3.79-0.32-4.75c0.29-1.07,0.9-1.69,1.63-2.21c2.76-1.97,5.75-1.07,7.55,1.47c0.38,0.54,2.42,3.54-0.09,7
		l-2.23-1.38c0.52-0.75,1.44-2.55,0.26-4.21c-1.06-1.49-2.65-1.37-3.63-0.67c-1.24,0.88-1.02,2.07-0.68,3.69
		c0.43,2.09,0.65,3.46,0.35,4.59c-0.27,0.96-0.84,1.51-1.51,1.98c-2.32,1.65-4.84,1-6.42-1.22c-0.5-0.7-1.7-2.66-0.2-5.32
		L32.03,157.18z"/>
	<path d="M25.57,148.58l11.97-6.49l1.34,2.47l-11.97,6.49l0.82,1.51l-2.26,1.23l-0.82-1.51l-5.14,2.79l-1.34-2.47l5.14-2.79
		l-1.34-2.47l2.26-1.23L25.57,148.58z"/>
	<path d="M28.48,129.25c-0.31-1.01,0.28-2.13,1.29-2.44c1.01-0.31,2.13,0.28,2.44,1.29c0.31,1.01-0.28,2.13-1.29,2.44
		S28.79,130.26,28.48,129.25z"/>
	<path d="M2.28,109.94c-0.13-2.61,0.07-4.81,1.5-6.64c1.54-1.99,3.81-2.58,5.45-2.66c3.66-0.19,7.4,1.92,7.71,7.85l0.13,2.53
		l11.3-0.58l0.15,2.88l-25.98,1.33L2.28,109.94z M14.33,111.16l-0.12-2.38c-0.18-3.43-2-5.4-5-5.25c-4.13,0.21-4.32,4.09-4.23,5.96
		l0.11,2.14L14.33,111.16z"/>
	<path d="M0.25,91.85l28.32,2.55l-0.25,2.8L0,94.65L0.25,91.85z"/>
	<path d="M16.18,74.08l0.69-2.72l15.69,3.98l-0.69,2.72l-2.19-0.56c0.94,1.2,1.98,3.28,1.28,6.04c-1.01,3.97-4.74,6.92-10.25,5.52
		c-5.4-1.37-7.28-5.71-6.26-9.72c0.77-3.02,2.84-4.23,3.97-4.7L16.18,74.08z M21.41,86.27c3.36,0.85,6.38-0.39,7.2-3.64
		c0.84-3.33-1.43-5.92-4.53-6.7c-4.04-1.03-6.53,1.32-7.14,3.74C16.25,82.35,17.59,85.3,21.41,86.27z"/>
	<path d="M19.56,64.47l1.26-2.51l1.67,0.84c-0.37-0.75-1.15-2.76,0.06-5.16c0.86-1.71,2.34-2.93,4.07-3.15
		c1.45-0.19,2.69,0.3,4.29,1.1l8.96,4.49l-1.26,2.51l-8.89-4.46c-0.87-0.44-1.92-0.87-2.98-0.67c-0.87,0.17-1.67,0.73-2.23,1.85
		c-0.44,0.87-0.66,1.94-0.16,3.1c0.66,1.55,2.33,2.48,3.38,3l7.57,3.79l-1.26,2.51L19.56,64.47z"/>
	<path d="M32.93,46.35l11.14,7.82l-1.61,2.3l-11.14-7.82l-0.99,1.4l-2.11-1.48l0.99-1.4l-4.79-3.36l1.61-2.3l4.79,3.36l1.61-2.3
		l2.11,1.48L32.93,46.35z"/>
	<path d="M34.98,21.67l19.74,20.46l-2.02,1.95L32.96,23.62L34.98,21.67z"/>
	<path d="M52.29,33.02c-2.82-4.03-1.93-9.08,2.13-11.92c4.06-2.84,9.11-1.95,11.93,2.08s1.87,9.07-2.15,11.89
		C60.17,37.88,55.1,37.04,52.29,33.02z M54.65,31.36c2.28,3.26,5.75,3.31,8.11,1.65c2.4-1.68,3.48-4.96,1.22-8.19
		c-2.28-3.26-5.7-3.39-8.13-1.69C53.42,24.84,52.39,28.14,54.65,31.36z"/>
	<path d="M68,13.41l8.76,8.12l0.13-11.94l2.87-1.23l-0.5,18.98L65.13,14.64L68,13.41z"/>
	<path d="M101,15.78c-0.27,0.98-0.75,2.07-1.4,2.97c-1.17,1.61-2.83,2.64-4.85,3.07c-3.81,0.81-8.33-0.74-9.58-6.61
		c-1.01-4.73,1.11-9.01,5.88-10.02c3.09-0.66,5.36,0.45,6.61,1.62c1.29,1.2,2.38,3.52,2.75,5.63l-12.32,2.62
		c0.74,3.27,3.43,4.89,6.18,4.31c1.3-0.28,2.25-0.88,3-1.83c0.59-0.76,1-1.69,1.18-2.52L101,15.78z M97.1,10.75
		c-0.99-2.38-3.2-3.62-5.53-3.13s-3.86,2.66-3.78,5.11L97.1,10.75z"/>
	<path d="M104.53,3.61l2.81-0.12l0.07,1.75c0.25-0.44,1.39-2.21,3.57-2.3c0.86-0.04,1.81,0.24,2.52,0.56l-1.22,2.59
		c-0.64-0.4-1.23-0.49-1.66-0.48c-1.13,0.05-1.81,0.54-2.22,1.11c-0.44,0.64-0.86,1.75-0.75,4.4l0.36,8.53l-2.81,0.12L104.53,3.61z"
		/>
	<path d="M126.75,17.32c1.04,0.18,1.77,1.21,1.59,2.25c-0.18,1.04-1.21,1.77-2.25,1.59c-1.04-0.18-1.77-1.21-1.59-2.25
		C124.68,17.88,125.72,17.14,126.75,17.32z"/>
</g>
</svg>
