<?xml version="1.0" encoding="utf-8"?>
<!-- Generator: Adobe Illustrator 25.2.0, SVG Export Plug-In . SVG Version: 6.00 Build 0)  -->
<svg version="1.1" id="Layer_1" xmlns="http://www.w3.org/2000/svg" xmlns:xlink="http://www.w3.org/1999/xlink" x="0px" y="0px"
	 viewBox="0 0 878.25 179.83" style="enable-background:new 0 0 878.25 179.83;" xml:space="preserve">
<style type="text/css">
	.st0{fill:#353535;}
</style>
<g>
	<path class="st0" d="M37.93,159.42c2.81,0,5.69-1.18,8.65-3.55v-28.61c0-9.02-3.03-14.12-9.09-15.3v-4.88l22.4-12.64
		c3.1,1.33,6.13,3.51,9.09,6.54c2.96,3.03,4.44,5.88,4.44,8.54v49.68c0,1.19-8.09,4.92-24.29,11.2c-16.19,6.29-26.1,9.43-29.72,9.43
		c-3.62,0-7.76-3.18-12.42-9.54C2.33,163.93,0,156.32,0,147.45V29.46c0-1.03,8.46-4.69,25.39-10.98
		c16.93-6.28,26.65-9.43,29.17-9.43c0.89,0,1.92,2.14,3.1,6.43c1.18,4.29,2.55,9.46,4.1,15.52c1.55,6.06,3.18,10.54,4.88,13.42
		c1.7,2.88,4.91,4.33,9.65,4.33v4.44c-3.25,1.48-8.76,4.1-16.52,7.87c-7.76,3.77-11.94,5.66-12.53,5.66
		c-2.22,0-5.03-6.02-8.43-18.08c-3.4-12.05-6.14-18.08-8.21-18.08c-1.48,0-2.81,0.74-3.99,2.22v110.23
		C26.61,153.96,30.38,159.42,37.93,159.42z"/>
	<path class="st0" d="M147.71,53.41c0.74,0,2.59,1.15,5.54,3.44c2.96,2.29,5.91,5.47,8.87,9.54c2.96,4.07,4.44,8.02,4.44,11.87
		v37.26c0,2.66-3.92,5.92-11.75,9.76c-7.84,3.85-15.41,6.99-22.73,9.43c-7.32,2.44-11.28,3.66-11.87,3.66
		c0,11.39,4.95,18.41,14.86,21.07c4.88,1.19,10.72,1.77,17.52,1.77v6.43c-24.25,8.13-37.19,12.2-38.81,12.2
		c-4.44,0-8.95-3.14-13.53-9.43c-4.58-6.28-6.88-13.64-6.88-22.07V73.81c0-1.03,8.43-4.69,25.28-10.98
		C135.51,56.55,145.19,53.41,147.71,53.41z M137.06,78.14c-1.92-2.88-4.36-4.33-7.32-4.33c-2.96,0-6.21,1.11-9.76,3.33v51.23
		c13.31-3.69,19.96-11.68,19.96-23.95V88.67C139.94,84.54,138.98,81.02,137.06,78.14z"/>
	<path class="st0" d="M214.24,30.34v26.39h11.31l-2.22,10.87h-9.09V147c0,9.02,3.03,14.12,9.09,15.3v4.88l-22.4,12.64
		c-3.25-1.33-6.29-3.51-9.09-6.54c-2.81-3.03-4.21-5.88-4.21-8.54V67.83h-9.09l2.22-9.31c4.44,0,9.79-2.99,16.08-8.98
		c6.28-5.99,10.02-12.38,11.2-19.18H214.24z"/>
	<path class="st0" d="M305.17,68.49V147c0,9.02,3.03,14.12,9.09,15.3v4.88l-22.4,12.64c-3.25-1.33-6.29-3.51-9.09-6.54
		c-2.81-3.03-4.21-5.88-4.21-8.54V86.23c0-9.02-3.03-14.12-9.09-15.3v-4.88l22.4-12.64c3.25,1.33,6.28,3.51,9.09,6.54
		C303.76,62.98,305.17,65.83,305.17,68.49z M275.23,25.69V12.16c0-0.44,3.07-1.81,9.2-4.1c6.13-2.29,9.68-3.44,10.65-3.44
		c0.96,0,2.36,1.26,4.21,3.77c1.85,2.52,2.77,5.1,2.77,7.76v16.19c0,0.44-2.96,1.81-8.87,4.1c-5.92,2.29-9.54,3.44-10.87,3.44
		c-1.33,0-2.85-1.29-4.55-3.88C276.07,33.41,275.23,29.98,275.23,25.69z"/>
	<path class="st0" d="M327.34,164.75V89.56c0-4.88-1.04-9.09-3.1-12.64c-2.07-3.55-4.66-5.32-7.76-5.32v-4.88
		c1.03-0.15,9.09-4.66,24.17-13.53c1.03,0.3,2.29,0.7,3.77,1.22c1.48,0.52,3.44,1.96,5.88,4.33c2.44,2.37,3.66,5.1,3.66,8.21
		c0.89-0.44,3.4-1.85,7.54-4.21c10.94-6.21,17.44-9.32,19.52-9.32c4.73,0,9.17,3.11,13.31,9.32c4.14,6.21,6.21,11.9,6.21,17.08V147
		c0,8.13,3.62,12.94,10.87,14.42v4.88l-24.17,13.53c-3.25-1.33-6.29-3.51-9.09-6.54c-2.81-3.03-4.21-5.88-4.21-8.54v-64.32
		c0-8.28-0.92-14.6-2.77-18.96c-1.85-4.36-5.14-6.54-9.87-6.54l-7.32,1.33V147c0,9.02,3.03,14.12,9.09,15.3v4.88l-22.4,12.64
		c-3.25-1.33-6.29-3.51-9.09-6.54C328.75,170.26,327.34,167.41,327.34,164.75z"/>
	<path class="st0" d="M491.46,30.34v26.39h11.31l-2.22,10.87h-9.09V147c0,9.02,3.03,14.12,9.09,15.3v4.88l-22.4,12.64
		c-3.25-1.33-6.29-3.51-9.09-6.54c-2.81-3.03-4.21-5.88-4.21-8.54V67.83h-9.09l2.22-9.31c4.44,0,9.79-2.99,16.08-8.98
		c6.28-5.99,10.02-12.38,11.2-19.18H491.46z"/>
	<path class="st0" d="M513.63,147.45V73.81c0-1.03,8.43-4.69,25.28-10.98c16.86-6.28,26.54-9.43,29.05-9.43
		c2.51,0,6.32,3.03,11.42,9.09c5.1,6.06,7.65,11.53,7.65,16.41v80.29c0,1.19-8.1,4.92-24.29,11.2c-16.19,6.29-26.1,9.43-29.72,9.43
		c-3.62,0-7.76-3.18-12.42-9.54C515.96,163.93,513.63,156.32,513.63,147.45z M551.56,159.42c2.81,0,5.69-1.18,8.65-3.55V90.45
		c0-10.94-3.77-16.41-11.31-16.41c-2.96,0-5.84,1.11-8.65,3.33v65.65C540.25,153.96,544.02,159.42,551.56,159.42z"/>
	<path class="st0" d="M639.28,154.65c2.29,2.44,4.84,3.66,7.65,3.66c2.81,0,5.77-1.11,8.87-3.33V86.01c0-9.02-3.03-14.12-9.09-15.3
		v-4.88l22.4-12.64c3.25,1.33,6.28,3.51,9.09,6.54c2.81,3.03,4.21,5.88,4.21,8.54v75.18c0,4.88,1.03,9.09,3.1,12.64
		c2.07,3.55,4.66,5.32,7.76,5.32v4.88c-1.04,0.15-9.09,4.66-24.17,13.53c-3.4-1.48-6.47-3.66-9.2-6.54c-2.74-2.88-4.1-5.66-4.1-8.32
		l-27.72,14.86c-0.44-0.29-1.11-0.7-2-1.22c-0.89-0.52-2.41-1.62-4.55-3.33c-2.14-1.7-4.03-3.51-5.66-5.43
		c-4.44-4.88-6.65-10.42-6.65-16.63v-67.2c0-8.13-3.62-12.94-10.87-14.42v-4.88l24.17-13.53c3.25,1.33,6.28,3.51,9.09,6.54
		c2.81,3.03,4.21,5.88,4.21,8.54v76.96C635.84,149.08,636.98,152.21,639.28,154.65z"/>
	<path class="st0" d="M735.2,74.92c-1.48,0-2.81,0.74-3.99,2.22v61.21c0,11.39,4.88,18.41,14.64,21.07
		c5.02,1.19,11.01,1.77,17.96,1.77v6.43c-24.25,8.13-37.19,12.2-38.81,12.2c-4.44,0-8.95-3.14-13.53-9.43
		c-4.58-6.28-6.88-13.64-6.88-22.07V73.81c0-1.03,8.46-4.69,25.39-10.98c16.93-6.28,26.65-9.43,29.16-9.43
		c0.89,0,1.92,2.15,3.11,6.43c1.18,4.29,2.55,9.46,4.1,15.53c1.55,6.06,3.18,10.54,4.88,13.42c1.7,2.88,4.91,4.33,9.65,4.33v4.44
		c-3.25,1.48-8.76,4.1-16.52,7.87c-7.76,3.77-11.94,5.66-12.53,5.66c-2.22,0-5.03-6.02-8.43-18.08
		C740,80.95,737.27,74.92,735.2,74.92z"/>
	<path class="st0" d="M794.19,164.75V54.96c0-3.99-0.67-6.84-2-8.54c-1.33-1.7-3.62-2.55-6.88-2.55v-6.21
		c19.22-10.05,36.37-19.52,51.46-28.39l3.55,7.1c-1.48,0.74-3.55,2.18-6.21,4.33c-2.66,2.14-4.88,4.32-6.65,6.54
		c-4.44,5.62-6.65,11.98-6.65,19.07v18.85c15.23-7.83,24.1-11.75,26.61-11.75c4.73,0,9.24,2.96,13.53,8.87
		c4.29,5.92,6.43,12.42,6.43,19.52V147c0,8.13,3.62,12.94,10.87,14.42v4.88l-24.17,13.53c-3.25-1.33-6.29-3.51-9.09-6.54
		c-2.81-3.03-4.21-5.88-4.21-8.54v-64.32c0-14.49-2.66-22.69-7.98-24.62c-2.52-0.89-6.51-1.33-11.98-1.33V147
		c0,9.02,3.03,14.12,9.09,15.3v4.88l-22.4,12.64c-3.25-1.33-6.29-3.51-9.09-6.54C795.59,170.26,794.19,167.41,794.19,164.75z"/>
</g>
<g>
	<path class="st0" d="M551.45,1.67c2.51,0,4.7,0.27,6.69,1.75c2.19,1.65,3.46,4.26,3.46,7.26s-1.24,5.59-3.62,7.26
		c-2.11,1.48-4.08,1.73-6.59,1.73h-4.64v-18H551.45z M550.26,16.65h1.08c0.89,0,2.83-0.05,4.4-1.19c1.43-1.03,2.24-2.86,2.24-4.78
		c0-1.89-0.78-3.72-2.21-4.8c-1.46-1.08-3.24-1.19-4.43-1.19h-1.08V16.65z"/>
	<path class="st0" d="M575.18,9.26c1.16,1.05,1.97,2.67,1.97,4.59c0,1.89-0.81,3.51-1.97,4.56c-1,0.92-2.51,1.65-4.72,1.65
		s-3.73-0.73-4.72-1.65c-1.16-1.05-1.97-2.67-1.97-4.56c0-1.92,0.81-3.54,1.97-4.59c1-0.92,2.51-1.65,4.72-1.65
		S574.18,8.34,575.18,9.26z M573.75,13.85c0-1.83-1.4-3.32-3.29-3.32s-3.29,1.48-3.29,3.32c0,1.78,1.38,3.29,3.29,3.29
		S573.75,15.63,573.75,13.85z"/>
	<path class="st0" d="M579.69,7.99h3.29V9.5c0.62-0.86,1.73-1.89,3.62-1.89c1.03,0,2.54,0.3,3.46,1.43c0.81,1,0.92,2.16,0.92,3.29
		v7.34h-3.29v-6.37c0-0.65-0.03-1.67-0.62-2.29c-0.51-0.54-1.21-0.59-1.54-0.59c-0.86,0-1.54,0.3-2.02,1.03
		c-0.49,0.76-0.51,1.59-0.51,2.27v5.97h-3.29V7.99z"/>
	<path class="st0" d="M597.13,1.32l3.02,0.35l-3.81,7.15l-2.08-0.24L597.13,1.32z"/>
	<path class="st0" d="M605.4,10.8v8.88h-3.29V10.8h-1.3V7.99h1.3v-4h3.29v4h2.27v2.81H605.4z"/>
	<path class="st0" d="M618.98,9.5c1.16-1.62,2.81-1.89,3.8-1.89c3.46,0,5.75,2.67,5.75,6.21c0,3.56-2.38,6.24-5.83,6.24
		c-0.76,0-2.46-0.14-3.72-1.89v1.51h-3.29V0h3.29V9.5z M618.65,13.82c0,1.86,1.35,3.32,3.24,3.32c1.89,0,3.24-1.46,3.24-3.32
		c0-1.86-1.35-3.29-3.24-3.29C620,10.53,618.65,11.96,618.65,13.82z"/>
	<path class="st0" d="M642.54,16.41c-0.35,0.86-1.67,3.64-5.75,3.64c-1.89,0-3.32-0.54-4.48-1.65c-1.3-1.21-1.84-2.73-1.84-4.56
		c0-2.32,0.95-3.75,1.78-4.59c1.38-1.35,3-1.65,4.4-1.65c2.38,0,3.75,0.95,4.56,1.92c1.24,1.48,1.4,3.32,1.4,4.59v0.27h-8.75
		c0,0.7,0.19,1.46,0.57,1.97c0.35,0.49,1.08,1.11,2.35,1.11c1.24,0,2.19-0.59,2.73-1.54L642.54,16.41z M639.52,12.28
		c-0.27-1.59-1.57-2.35-2.78-2.35c-1.21,0-2.48,0.78-2.75,2.35H639.52z"/>
	<path class="st0" d="M657.83,10.77c-0.78-0.73-1.57-0.78-1.92-0.78c-0.78,0-1.27,0.38-1.27,0.94c0,0.3,0.14,0.76,1.05,1.05
		l0.78,0.24c0.92,0.3,2.29,0.76,2.97,1.67c0.35,0.49,0.59,1.19,0.59,1.94c0,1.05-0.35,2.11-1.3,2.97c-0.94,0.86-2.08,1.24-3.51,1.24
		c-2.43,0-3.81-1.16-4.54-1.94l1.73-2c0.65,0.76,1.62,1.35,2.59,1.35c0.92,0,1.62-0.46,1.62-1.27c0-0.73-0.59-1.03-1.03-1.19
		l-0.76-0.27c-0.84-0.3-1.81-0.67-2.51-1.4c-0.54-0.57-0.89-1.3-0.89-2.24c0-1.13,0.54-2.08,1.21-2.65
		c0.92-0.73,2.11-0.84,3.05-0.84c0.86,0,2.24,0.11,3.73,1.24L657.83,10.77z"/>
	<path class="st0" d="M662.36,0h3.29v9.5c0.62-0.86,1.73-1.89,3.62-1.89c1.03,0,2.54,0.3,3.46,1.43c0.81,1,0.92,2.16,0.92,3.29v7.34
		h-3.29v-6.37c0-0.65-0.03-1.67-0.62-2.29c-0.51-0.54-1.21-0.59-1.54-0.59c-0.86,0-1.54,0.3-2.03,1.03
		c-0.49,0.76-0.51,1.59-0.51,2.27v5.97h-3.29V0z"/>
	<path class="st0" d="M680.29,17.92l-5.56-9.93h3.83l3.62,6.64l3.24-6.64h3.73l-9.42,17.87H676L680.29,17.92z"/>
	<path class="st0" d="M690.71,15.95l3.02,0.35l-3.81,7.15l-2.08-0.24L690.71,15.95z"/>
</g>
</svg>
