<?xml version="1.0" encoding="utf-8"?>
<!-- Generator: Adobe Illustrator 25.2.1, SVG Export Plug-In . SVG Version: 6.00 Build 0)  -->
<svg version="1.1" id="Layer_1" xmlns="http://www.w3.org/2000/svg" xmlns:xlink="http://www.w3.org/1999/xlink" x="0px" y="0px"
	 viewBox="0 0 272.43 102.36" style="enable-background:new 0 0 272.43 102.36;" xml:space="preserve">
<style type="text/css">
	.st0{fill:#FFFFFF;}
</style>
<g>
	<path class="st0" d="M198.08,48.92c0,0-6.02-1.69-6.61-10.16c-0.04-0.62-0.58-1.08-1.2-1.03l0,0c-0.33,0.03-0.63,0.2-0.81,0.47
		c-0.82,1.2-2.84,4.83-1.15,9.5L198.08,48.92z"/>
	<path class="st0" d="M141.86,63.32c0,0-6.46,1.98-12.03-5.35c-0.41-0.53-1.17-0.64-1.7-0.23l0,0c-0.28,0.22-0.45,0.55-0.45,0.9
		c-0.03,1.56,0.3,6.03,4.61,9.27L141.86,63.32z"/>
	<path class="st0" d="M251.47,75.61c-1.68,1.2-2.55,3.01-4.24,4.17c-2.96,1.85-6.65,2.16-10.06,1.56
		c-5.82-1.04-10.54-4.81-14.33-9.2c-3.93-4.41-7.49-9.22-11.59-13.65c-8.58-9.83-20.08-13.93-33.05-12.21
		c-9.08,1.28-18.09,4.92-24.68,11.41c-2.09,2.2-4.08,4.47-5.86,6.98c-3.9,5.28-6.48,12.27-2.96,18.58c0.65,1.35,2.31,1.91,3.66,1.22
		c1.53-0.75,1.94-2.79,0.84-4.07c-1.63-1.98-2.96-4.18-2.84-6.83c0.19-2.74,1.57-5.37,3.14-7.65c3.38-4.67,7.35-9.09,12.47-12
		c10-5.8,22.72-8.13,33.81-4.24c5.59,1.92,10.28,5.58,14.2,9.94c4.01,4.34,7.56,9.14,11.56,13.64c3.02,3.43,6.52,6.61,10.78,8.47
		c4.33,1.94,9.24,2.75,13.93,1.27c3-1.12,6.71-2.68,7.46-6.12C253.94,75.63,252.45,74.8,251.47,75.61L251.47,75.61z"/>
	<path class="st0" d="M184.77,45.86c-16.79,0.58-29.33,21.55-24.73,36.85c1.87,7.22,7.2,14.42,15.15,15.55
		c4.1,0.52,8.81,0.21,11.97-2.79c1.61-1.5,2.75-3.48,3.03-5.56c0.29-2.22-2.56-3.4-3.96-1.7c-2.41,2.9-4.42,6.25-8.29,7.13
		c-2.38,0.42-4.83-0.29-6.96-1.4c-4.42-2.36-7.36-7.07-8.73-11.85c-3.61-11.37,2.81-25.12,12.85-31.2c2.93-1.73,6.29-2.76,9.7-2.73
		C186.34,48.14,186.34,45.87,184.77,45.86L184.77,45.86z"/>
	<path class="st0" d="M144.51,70.66c-3.95,7.78-8.89,15.26-15.58,21c-8.16,7.12-19.46,10.77-29.54,5.43
		c-5.77-2.93-8.62-8.71-5.48-14.65c1.72-3.22,5.41-6.04,9.13-5.27c3.78,0.75,6.3,3.74,9.2,6.09c0.82,0.73,2.09,0.64,2.78-0.22
		c0.42-0.51,0.51-1.19,0.32-1.77c-1.56-4.86-6.73-8.82-12.06-8.58c-8.05,0.26-14.45,7.78-13.78,15.56
		c0.59,7.74,8.23,12.42,15.27,13.69c14.37,2.68,27.13-7.68,34.7-18.76c2.6-3.68,4.82-7.63,6.81-11.66
		C146.82,70.35,145.12,69.5,144.51,70.66L144.51,70.66z"/>
	<path class="st0" d="M192.25,46.58c-10.24-1.97-21.54,1.76-25.78,11.81c-2.59,6.13-2.09,14.22,2.02,19.61
		c5.34,6.68,14.92,4.62,18.84-2.46c2.11-3.66,0.71-8.77-2.75-10.98c-1.97-1.25-4.27,0.87-3.24,2.9c1.2,2.92,3.24,5.58,1.68,8.61
		c-1.04,1.78-3.11,2.82-5.12,3.21c-2.82,0.53-5.71-0.57-7.54-2.78c-1.87-2.23-2.81-5.3-3.2-8.33c-0.8-6.09,1.74-12.52,6.78-16.17
		c5.02-3.78,11.8-4.51,17.86-3.15C193.33,49.14,193.8,46.9,192.25,46.58L192.25,46.58z"/>
	<path class="st0" d="M154.11,57.12c-12.28,4.44-24.23,9.68-35.62,16.03c-11.2,6.44-21.85,13.96-33.64,19.2
		c-11.4,5.15-24.83,8.3-36.88,3.61c-12.61-4.77-16.98-19.08-10.23-30.39c1.61-2.61,3.76-4.8,6.44-6.32
		c2.64-1.57,5.57-2.71,8.63-3.12c6.37-0.85,11.95,1.74,15.59,6.89c1.54,2.12,2.34,5.39,0.02,7.14c-0.23,0.17-0.5,0.29-0.59,0.29
		c-3.69,0.15-3.68,5.4,0.02,5.52c0.66,0.03,1.37-0.35,1.95-0.61c0.91-0.41,1.55-0.91,2.11-1.46c2.7-2.6,3.19-6.84,1.59-10.06
		c-1.61-3.31-4.47-5.8-7.61-7.51c-4.12-2.1-8.79-3.21-13.39-2.58c-4.52,0.64-8.8,2.58-12.34,5.42c-8.78,7.4-10.46,21.51-3.7,30.75
		c3.96,5.56,10.52,8.73,17.15,9.85c22.37,3.65,42.33-10.57,60.44-21.46c5.5-3.36,11.19-6.36,17.03-9.11
		c7.76-3.66,15.76-6.97,23.84-9.82C156.33,58.9,155.77,56.64,154.11,57.12L154.11,57.12z"/>
	<path class="st0" d="M52.89,98.55c-11.17-5.7-13.7-22.27-5.8-30.28c0,0,0.18,5.39,5.4,9.81c7.83,6.63-4.52,14.75,3.52,20.54
		L52.89,98.55z"/>
	<path class="st0" d="M34.11,82.28c0,0-0.04-0.06-0.12-0.15v-0.01c-0.21-0.27-0.68-0.84-1.4-1.59c-1.54-1.61-4.25-3.99-7.96-5.67
		c-3.4-1.54-7.65-2.49-12.64-1.72C1.9,74.71-2.08,82.94,1.03,89.8c2.25,4.96,5.15,4.88,6.22,4.47c1.55-0.57,1.92-3.2-0.52-4.09
		c-1.69-0.61-4-1.96-4.15-5.15c-0.13-2.58,4.34-5.69,7.72-2.94c3.38,2.76,6.67,7.56,16.2,7.18c4.78-0.2,7.48-0.32,9.7,0.32
		c0.93,0.27,1.78,0.66,2.67,1.26C34.94,88.05,34.67,83.5,34.11,82.28z M17.26,83.57c2.75,1.24,5.7,1.8,8.6,2.6
		C22.86,86.17,19.62,85.5,17.26,83.57z M26.23,79.68c-4.64-2.62-9.92-4.55-15.34-4.12c6.14-1.6,12.81,1.22,17.35,5.3
		C27.55,80.48,26.9,80.06,26.23,79.68z"/>
	<path class="st0" d="M33.52,74.89c-0.11-2.5,0.01-4.42,0.12-6.08V68.8c0.19-2.52,0.36-4.45-0.28-6.94
		c-1.74-6.77-5.7-12.64-9.22-16.2c0,0,1.74,7.67-0.91,11.42c-3.11,4.43-6.74,10.13-1.38,15.32c1.02,0.99,1.93,1.77,2.78,2.45
		c2.78,2.18,4.91,3.14,8.01,5.98c0.43,0.39,0.88,0.82,1.35,1.3v-0.01L33.52,74.89z M31.73,67.33c-0.43-3.87-1.64-7.78-2.58-11.69
		C30.92,59.43,32.2,63.72,31.73,67.33z"/>
	<path class="st0" d="M272.43,58.44v3.97c-1.77-3.21-4.05-6.14-6.82-8.63c-4.26-3.86-9.39-6.95-14.89-8.93
		c-1.03-0.38-2.07-0.71-3.12-1c-2.1-0.58-4.24-1.01-6.4-1.25h-0.01c-0.36-0.05-0.73-0.09-1.09-0.12h-0.04
		c-0.36-0.03-0.71-0.06-1.07-0.08c-9.78-0.52-19.67,3.77-25.93,11.23c-1.05,1.19-1.97,2.49-2.72,3.87c-0.3,0.53-0.57,1.08-0.81,1.64
		c-2,4.51-2.31,9.64-0.03,14.27c2.54,5.28,8.07,9.21,14.03,9.35c2.59,0.1,4.99-0.6,7.1-1.83c0.59-0.34,1.16-0.71,1.71-1.14
		c1.64-1.26,3.06-2.85,4.21-4.6c0.36-0.54,0.69-1.11,0.99-1.68c0.7-1.22,2.53-0.24,1.88,1.01c-0.09,0.17-0.18,0.35-0.28,0.51
		c0,0,0,0.01-0.01,0.02c-1.18,2.11-2.72,4.05-4.54,5.64c-0.53,0.47-1.1,0.9-1.68,1.31c-2.72,1.88-5.93,3-9.43,2.87
		c-9.57-0.19-17.75-8.82-17.71-18.24c-0.05-3.19,0.76-6.29,2.17-9.11c0.26-0.54,0.55-1.07,0.86-1.59c0.76-1.29,1.64-2.51,2.62-3.65
		c5.51-6.56,13.28-10.58,21.55-11.7c0.58-0.08,1.15-0.14,1.73-0.19c0.69-0.06,1.38-0.1,2.07-0.12h0.01c1.55-0.04,3.11,0.02,4.67,0.2
		c0.01,0,0.01,0,0.01,0c1.73,0.18,3.45,0.49,5.16,0.94c0.05,0.01,0.11,0.03,0.16,0.04c0.9,0.23,1.79,0.49,2.67,0.75
		C258.98,45.17,267.12,50.81,272.43,58.44z"/>
	<path class="st0" d="M236.99,76.41c0,0,6.09-2.84,7.35-9.84c1.26-6.99-3.63-12.84-7.7-14.56c-3.65-1.55-8.03-1.17-10.14,2.33
		c-0.4,0.66-0.12,1.52,0.6,1.82l0,0c0.62,0.26,1.35,0.01,1.63-0.59c1.41-2.99,3.7-3.58,5.54-2.88c2.88,1.1,3.36,5.05,0.91,6.91
		C227.3,65.61,235.25,70.38,236.99,76.41z"/>
	<path class="st0" d="M241.11,40.34c-5.12-1.08-10.7-4.42-11.35-10c-0.66-7.03,4.12-13.92,10.79-16.29
		c4.97-1.83,11.15-2.12,15.65,0.92c2.89,2.08,5.31,5.67,4.43,9.27c-0.49,2.72-2.52,4.83-4.87,6.18c-1.26,0.76-1.66,2.4-0.89,3.65
		c0.83,1.37,2.75,1.69,3.99,0.67c1.54-1.23,2.92-2.68,3.94-4.39c1.04-1.73,1.68-3.74,1.72-5.75c-0.01-3.9-1.81-7.53-4.48-10.21
		c-7.68-7.72-22.84-4.65-28.93,3.66c-2.16,2.87-3.45,6.3-3.73,9.87c-0.42,4.7,1.96,9.09,5.93,11.62c1.85,1.24,3.91,2.13,6.04,2.75
		c0.44,0.12,0.84,0.23,1.33,0.33c0.63,0.13,1.25-0.28,1.37-0.9C242.19,41.07,241.76,40.45,241.11,40.34L241.11,40.34z"/>
	<path class="st0" d="M272.43,0v2.39C266.2,3.64,260.49,7,256.11,11.6c-0.69,0.72-1.34,1.47-1.97,2.25c0,0,0,0,0,0.01
		c-6.21,7.82-8.83,18.38-4.69,28.33c0.36,0.89,0.79,1.77,1.27,2.65c3.65,6.67,10.56,12.93,21.71,17.7v2.52
		c-10.19-4.2-20.29-11.25-24.83-21.22c-0.37-0.79-0.69-1.61-0.98-2.45c-0.65-1.87-1.11-3.83-1.34-5.89
		c-0.99-8.06,1.7-16.03,6.58-22.4c0.63-0.82,1.29-1.61,1.99-2.38C258.76,5.33,265.33,1.38,272.43,0z"/>
	<path class="st0" d="M236.78,40.26h-0.01l-3.99-2.54c-1.85-1.35-3.27-2.61-4.4-3.85l-0.01-0.01c-5.33-5.87-3.61-10.82-6.01-18.07
		c-2.9-8.77-11.25-13.41-16.21-13.9c-4.96-0.48-5.27,2.73-3.56,2.88c1.72,0.14,4.92-1.32,7.48,0.93c2.57,2.26,1.7,6.88,2.57,12.1
		c0.87,5.23,8.56,9.97,11.61,13.65c3.05,3.69,5.91,6.52,5.91,6.52c-5.04-2.06-3.59-2.59-11.18-8.01c-7.6-5.41-16.17-7.47-20.09-2.01
		s1.02,8.43,1.02,8.43c2.61-10.63,17.23-3.21,24.25,0.57c3.53,1.9,6.62,2.99,8.81,3.6c2.18,0.6,3.48,0.75,3.48,0.75h0.19l1.77-0.02
		L236.78,40.26z M215.32,8.6c4.35,3.55,6.17,9.38,6.97,14.73C220.51,18.29,218.84,12.75,215.32,8.6z"/>
</g>
</svg>
