<?xml version="1.0" encoding="utf-8"?>
<!-- Generator: Adobe Illustrator 25.2.0, SVG Export Plug-In . SVG Version: 6.00 Build 0)  -->
<svg version="1.1" id="Layer_1" xmlns="http://www.w3.org/2000/svg" xmlns:xlink="http://www.w3.org/1999/xlink" x="0px" y="0px"
	 viewBox="0 0 957.34 260.29" style="enable-background:new 0 0 957.34 260.29;" xml:space="preserve">
<style type="text/css">
	.st0{fill:#353535;}
</style>
<g>
	<g>
		<path class="st0" d="M663.35,23.17c-2.93-3.16-6.1-5.44-9.49-6.83l-23.37,13.19v5.09c6.32,1.24,9.49,6.56,9.49,15.96v127.94
			c0,2.78,1.46,5.75,4.4,8.91c2.93,3.16,6.09,5.44,9.49,6.82l23.36-13.19v-5.09c-6.33-1.23-9.49-6.55-9.49-15.96V32.07
			C667.74,29.3,666.27,26.33,663.35,23.17z"/>
	</g>
	<g>
		<path class="st0" d="M720.02,23.17c-2.93-3.16-6.1-5.44-9.49-6.83l-23.37,13.19v5.09c6.32,1.24,9.49,6.56,9.49,15.96v127.94
			c0,2.78,1.46,5.75,4.4,8.91c2.93,3.16,6.09,5.44,9.49,6.82l23.36-13.19v-5.09c-6.33-1.23-9.49-6.55-9.49-15.96V32.07
			C724.42,29.3,722.95,26.33,720.02,23.17z"/>
	</g>
	<g>
		<g>
			<path class="st0" d="M817.42,137.34c8.17-4.01,12.26-7.4,12.26-10.18V88.29c0-4.01-1.54-8.13-4.62-12.38
				c-3.09-4.24-6.17-7.56-9.26-9.95c-3.09-2.39-5.01-3.59-5.78-3.59c-2.62,0-12.72,3.28-30.31,9.83
				c-17.58,6.56-26.37,10.37-26.37,11.45v77.73c0,8.79,2.39,16.47,7.17,23.02c4.78,6.56,9.49,9.83,14.11,9.83
				c1.69,0,15.19-4.24,40.49-12.72v-6.71c-7.1,0-13.19-0.61-18.28-1.85c-10.34-2.78-15.5-10.1-15.5-21.98
				c0.62,0,4.74-1.27,12.38-3.82C801.34,144.62,809.24,141.35,817.42,137.34z M781.09,140.58V87.14c3.7-2.31,7.09-3.47,10.18-3.47
				c3.08,0,5.63,1.5,7.64,4.51c2,3.01,3.01,6.67,3.01,10.99v16.43C801.92,128.39,794.97,136.72,781.09,140.58z"/>
		</g>
	</g>
	<g>
		<path class="st0" d="M927.3,72.1c-4.32-6.48-8.95-9.72-13.88-9.72c-2.16,0-8.95,3.24-20.36,9.72c-4.32,2.47-6.94,3.93-7.87,4.4
			c0-3.24-1.27-6.09-3.82-8.56c-2.55-2.47-4.59-3.97-6.13-4.51c-1.54-0.54-2.85-0.96-3.93-1.27c-15.73,9.25-24.14,13.96-25.22,14.11
			v5.09c3.24,0,5.93,1.85,8.1,5.55c2.16,3.7,3.24,8.1,3.24,13.19v78.43c0,2.78,1.46,5.75,4.4,8.91c2.93,3.16,6.09,5.44,9.49,6.82
			l23.36-13.19v-5.09c-6.33-1.23-9.49-6.55-9.49-15.96v-73.8l7.64-1.39c4.93,0,8.36,2.28,10.29,6.83
			c1.92,4.55,2.89,11.14,2.89,19.78v67.09c0,2.78,1.46,5.75,4.39,8.91c2.93,3.16,6.09,5.44,9.49,6.82l25.22-14.11v-5.09
			c-7.56-1.54-11.34-6.55-11.34-15.04v-20.28c0.92-6.89,2.38-12.96,4.17-17.19c7.23-17.06,19.39-11.59,19.39-11.59
			s-6.18-14.85-23.56-5.79V89.91C933.78,84.52,931.62,78.57,927.3,72.1z"/>
	</g>
	<g>
		<g>
			<path class="st0" d="M524.98,81.51c-8.53,3.56-20.31,3.88-29.89,9.14c-10.67,5.84-18.53,17.11-15.02,30.97
				c6.7,26.35,33.45,19.26,34.4,6.14c0.95-13.1-5.12-15-8.95-12.83c-3.24,1.86-2.2,7.2,0.91,9.9c2.8,2.45,2.59,7.01-0.34,9.3
				c-6.84,5.35-24.52-1.18-21.79-20.42c4.25-29.95,46.94-22.53,44.13-1.05c-2.39,18.21-7.6,43.28-9.12,50.49
				c-16.18,4.69-20.4,18.09-19.45,29.22c25.57-15.56,58.51,4.55,58.51,4.55l17.11-26.21c-9.53-3.51-17.92-5.89-25.32-7.37
				l4.28-23.98c8.33,0,17.43,0,22.93,0c4.56,25.47,12.99,48.62,32.2,57.47l17.73-30.22c-8.32,1.47-18.54-3.77-21.25-29.22
				c-3.77-35.47-5.62-58.9-6.74-74.65c-0.37-5.15-1.32-10.25-3.06-15.12c-16.17-45.07-70.29-12.77-81.37-36.15
				c0,0-7.51,33.31,24.56,38.5C539.45,49.98,543,74,524.98,81.51z M574.25,117.26h-15.87l9.35-52.41
				C570.89,77.94,572,97.26,574.25,117.26z M555.1,48.24c3.7,0,6.5,2.12,8.67,5.83l-11.27,63.19h-10.53L555.1,48.24z M537.77,139.37
				c2.32,0,6.22,0,10.79,0l-4.1,22.97c-3.95-0.58-7.56-0.86-10.89-0.91L537.77,139.37z"/>
		</g>
	</g>
	<g>
		<path class="st0" d="M168.79,187.42c2.93,3.16,6.09,5.44,9.49,6.82l23.37-13.19v-5.09c-6.33-1.23-9.49-6.55-9.49-15.96v-81.9
			c0-2.78-1.47-5.74-4.4-8.91c-2.93-3.16-6.09-5.44-9.49-6.83l-23.36,13.19v5.09c6.32,1.24,9.49,6.56,9.49,15.96v81.9
			C164.4,181.29,165.86,184.27,168.79,187.42z"/>
	</g>
	<g>
		<path class="st0" d="M244.67,68.97c-2.93-3.16-6.1-5.44-9.49-6.82l-25.22,14.11v5.09c7.55,1.54,11.33,6.56,11.33,15.04v63.62
			c0,7.56,1.89,14.38,5.67,20.47c3.78,6.09,8.06,9.14,12.84,9.14c2.62,0,12.64-4.08,30.08-12.26c-5.09,11.42-11.49,20.55-19.2,27.41
			c-7.72,6.86-14.58,10.29-20.59,10.29h-7.87v6.94l6.71,3.47c4.63,2.31,10.18,4.63,16.65,6.94c6.48,2.31,11.65,3.47,15.5,3.47
			c2.16,0,6.17-4.13,12.03-12.38c5.86-8.25,11.41-17.81,16.65-28.69c5.24-10.87,7.87-19.24,7.87-25.1v-30.84
			c0.93-6.54,2.33-12.29,4.05-16.35c7.23-17.06,19.39-11.59,19.39-11.59s-6.15-14.78-23.44-5.85V77.88c0-2.78-1.46-5.74-4.39-8.91
			c-2.93-3.16-6.1-5.44-9.49-6.82l-23.36,13.19v5.09c6.32,1.24,9.49,6.56,9.49,15.96v71.26c-7.1,0-12.34-1.81-15.73-5.44
			c-3.4-3.62-5.09-10.83-5.09-21.63v-62.7C249.07,75.1,247.6,72.14,244.67,68.97z"/>
	</g>
	<g>
		<g>
			<path class="st0" d="M333.97,119.06c-8.02,3.86-12.03,7.02-12.03,9.49v37.94c0,6.48,2.32,12.26,6.94,17.35
				c1.69,2.01,3.66,3.9,5.9,5.67c2.24,1.78,3.82,2.93,4.74,3.47c0.93,0.54,1.62,0.97,2.08,1.27l28.92-15.5
				c0,2.62,1.46,5.52,4.39,8.68c2.93,3.16,6.09,5.44,9.49,6.82l25.22-14.11v-5.09c-3.86-0.93-6.71-2.51-8.56-4.74
				c-1.85-2.24-2.78-6.21-2.78-11.91V92.92c0-7.09-2.32-13.96-6.94-20.59c-4.62-6.63-9.49-9.95-14.57-9.95
				c-2.93,0-16.35,4.24-40.26,12.73v6.94c13.26,0,22.21,1.74,26.84,5.21c4.63,3.47,6.94,9.6,6.94,18.39l-12.26,3.93
				C350.01,112.04,341.99,115.21,333.97,119.06z M370.53,116.05v52.28c-3.24,2.31-6.33,3.47-9.26,3.47s-5.59-1.27-7.98-3.82
				c-2.39-2.55-3.59-5.82-3.59-9.83v-15.04c0-9.1,2-15.5,6.02-19.2c2.16-2,4.2-3.47,6.13-4.39
				C363.78,118.6,366.67,117.44,370.53,116.05z"/>
		</g>
	</g>
	<g>
		<g>
			<path class="st0" d="M14.71,160.39c3.65,3.16,7.19-2.55,2.37-6.08c-4.34-3.17-18.92-1.02-16.88,16.51
				c2.04,17.53,19.13,23.67,37.7,17.69c18.57-5.98,38.35,8.09,38.35,8.09c4.27-10.57,13.91-19.2,13.91-19.2
				c-2.59-3.05-6.07-5.28-9.8-6.9l1.98-53.84c32.53-10.65,1.08,47.64,39.87,78.46l32.69-31.86c-45.49,7.37-11.83-54.53-46.09-61.81
				c26.29-16.97,30.36-49.07,20.15-68.29c-4.62-8.69-13.9-13.88-23.74-13.88l-15.05,0L67.11,48.66c0-0.96,0-1.9,0-2.81
				c0-30.19-20.08-30.19-20.08-30.19C39.8,22.3,32.73,30.5,25.79,39.77c11.31-2.78,16.79,8.72,16.97,15.31
				c0.14,5.02,0.28,32.5,0.28,32.5c-17.67-9.46-23.93,5.61-23.93,5.61s12.15-5.47,19.38,11.59c7.23,17.07,9,63.9-7.7,74.2
				c-18.9,11.65-29.75-3.89-28.98-12.24S10.21,156.49,14.71,160.39z M82.79,104.04l2.17-59.24
				C120.38,44.72,110.17,82.86,82.79,104.04z M67.11,140.08c0,0,0-43.15,0-75.3L79.13,48.8l-4.4,119.72
				c-9.2-2.6-18.13-2.38-18.13-2.38C61.57,162.25,67.11,154.82,67.11,140.08z"/>
		</g>
	</g>
	<g>
		<path class="st0" d="M174.92,0c-1.39,14.61-9.74,25.6-23.37,27.96c11.87,3.32,20.14,10.86,23.37,24.35
			c3.23-13.48,11.5-21.03,23.37-24.35C184.66,25.6,176.31,14.61,174.92,0z"/>
	</g>
</g>
<g>
	<path class="st0" d="M509.67,247.96h6.42v0.17c0,0.94-0.12,3.88-2.06,5.79c-1.45,1.45-3.23,1.85-4.98,1.85s-3.55-0.36-5.08-1.89
		c-0.48-0.48-2.08-2.25-2.08-5.4c0-2.71,1.22-4.37,2.06-5.21c1.05-1.07,2.81-2.14,5.52-2.14c1.05,0,2.16,0.17,3.23,0.73
		c0.9,0.46,1.89,1.3,2.62,2.56l-2.37,1.28c-0.48-0.94-1.2-1.43-1.64-1.66c-0.59-0.29-1.32-0.44-1.97-0.44
		c-1.11,0-2.37,0.4-3.23,1.24c-0.8,0.78-1.41,2.12-1.41,3.7c0,1.87,0.8,2.98,1.38,3.55c0.63,0.61,1.62,1.2,3.11,1.2
		c0.92,0,1.97-0.25,2.75-0.84c0.55-0.42,1.09-1.13,1.32-2.14h-3.61V247.96z"/>
	<path class="st0" d="M518.24,246.37h2.56v1.36c0.4-0.78,0.94-1.15,1.13-1.26c0.4-0.25,0.9-0.4,1.51-0.4c0.44,0,0.8,0.1,1.09,0.21
		l-0.34,2.39c-0.34-0.23-0.67-0.34-1.2-0.34c-0.48,0-1.2,0.1-1.7,0.73c-0.48,0.61-0.5,1.39-0.5,2.02v4.37h-2.56V246.37z"/>
	<path class="st0" d="M532.56,246.37h2.56v9.09h-2.56v-1.18c-0.92,1.32-2.14,1.47-2.79,1.47c-2.79,0-4.64-2.18-4.64-4.85
		c0-2.69,1.83-4.83,4.51-4.83c0.69,0,2.06,0.13,2.92,1.47V246.37z M527.77,250.9c0,1.45,1.05,2.58,2.52,2.58
		c1.47,0,2.52-1.13,2.52-2.58s-1.05-2.56-2.52-2.56C528.82,248.34,527.77,249.45,527.77,250.9z"/>
	<path class="st0" d="M540.12,260.27h-2.56v-13.9h2.56v1.18c0.4-0.57,1.28-1.47,2.96-1.47c0.8,0,2.08,0.19,3.11,1.22
		c0.67,0.67,1.37,1.81,1.37,3.61c0,2.06-0.9,3.17-1.43,3.67c-0.69,0.65-1.74,1.18-3.09,1.18c-0.63,0-1.91-0.1-2.92-1.47V260.27z
		 M540.73,248.95c-0.57,0.48-0.86,1.11-0.86,1.95s0.34,1.53,0.84,1.97c0.34,0.29,0.88,0.61,1.68,0.61c0.84,0,1.39-0.34,1.72-0.65
		c0.54-0.5,0.8-1.26,0.8-1.93s-0.27-1.43-0.78-1.91c-0.46-0.42-1.13-0.65-1.74-0.65C541.72,248.34,541.19,248.53,540.73,248.95z"/>
	<path class="st0" d="M549.53,240.15h2.56v7.39c0.48-0.67,1.34-1.47,2.81-1.47c0.8,0,1.97,0.23,2.69,1.11
		c0.63,0.78,0.71,1.68,0.71,2.56v5.71h-2.56v-4.96c0-0.5-0.02-1.3-0.48-1.78c-0.4-0.42-0.95-0.46-1.2-0.46
		c-0.67,0-1.2,0.23-1.57,0.8c-0.38,0.59-0.4,1.24-0.4,1.76v4.64h-2.56V240.15z"/>
	<path class="st0" d="M562.02,240.99c0.84,0,1.53,0.69,1.53,1.53s-0.69,1.53-1.53,1.53s-1.53-0.69-1.53-1.53
		S561.18,240.99,562.02,240.99z M563.3,246.37v9.09h-2.56v-9.09H563.3z"/>
	<path class="st0" d="M572.58,249.14c-0.54-0.5-1.22-0.8-2.1-0.8c-1.7,0-2.56,1.24-2.56,2.56c0,1.49,1.11,2.58,2.64,2.58
		c0.57,0,1.32-0.17,2.02-0.8v2.5c-0.5,0.25-1.3,0.57-2.35,0.57c-1.43,0-2.69-0.55-3.51-1.32c-0.69-0.65-1.45-1.78-1.45-3.49
		c0-1.6,0.65-2.88,1.58-3.7c1.11-0.99,2.39-1.18,3.28-1.18c0.94,0,1.72,0.19,2.46,0.55V249.14z"/>
	<path class="st0" d="M586.38,240.15h2.56v15.31h-2.56v-1.18c-0.92,1.32-2.14,1.47-2.79,1.47c-2.79,0-4.64-2.18-4.64-4.85
		c0-2.69,1.83-4.83,4.51-4.83c0.69,0,2.06,0.13,2.92,1.47V240.15z M581.59,250.9c0,1.45,1.05,2.58,2.52,2.58s2.52-1.13,2.52-2.58
		s-1.05-2.56-2.52-2.56S581.59,249.45,581.59,250.9z"/>
	<path class="st0" d="M600.3,252.92c-0.27,0.67-1.3,2.83-4.47,2.83c-1.47,0-2.58-0.42-3.49-1.28c-1.01-0.94-1.43-2.12-1.43-3.55
		c0-1.81,0.73-2.92,1.39-3.57c1.07-1.05,2.33-1.28,3.42-1.28c1.85,0,2.92,0.73,3.55,1.49c0.97,1.15,1.09,2.58,1.09,3.57v0.21h-6.8
		c0,0.55,0.15,1.13,0.44,1.53c0.27,0.38,0.84,0.86,1.83,0.86c0.97,0,1.7-0.46,2.12-1.2L600.3,252.92z M597.95,249.71
		c-0.21-1.24-1.22-1.83-2.16-1.83s-1.93,0.61-2.14,1.83H597.95z"/>
	<path class="st0" d="M607.3,248.53c-0.61-0.57-1.22-0.61-1.49-0.61c-0.61,0-0.99,0.29-0.99,0.73c0,0.23,0.1,0.59,0.82,0.82
		l0.61,0.19c0.71,0.23,1.78,0.59,2.31,1.3c0.27,0.38,0.46,0.92,0.46,1.51c0,0.82-0.27,1.64-1.01,2.31s-1.62,0.97-2.73,0.97
		c-1.89,0-2.96-0.9-3.53-1.51l1.34-1.55c0.5,0.59,1.26,1.05,2.02,1.05c0.71,0,1.26-0.36,1.26-0.99c0-0.57-0.46-0.8-0.8-0.92
		l-0.59-0.21c-0.65-0.23-1.41-0.52-1.95-1.09c-0.42-0.44-0.69-1.01-0.69-1.74c0-0.88,0.42-1.62,0.95-2.06
		c0.71-0.57,1.64-0.65,2.37-0.65c0.67,0,1.74,0.08,2.9,0.97L607.3,248.53z"/>
	<path class="st0" d="M612.11,240.99c0.84,0,1.53,0.69,1.53,1.53s-0.69,1.53-1.53,1.53s-1.53-0.69-1.53-1.53
		S611.27,240.99,612.11,240.99z M613.39,246.37v9.09h-2.56v-9.09H613.39z"/>
	<path class="st0" d="M622.75,246.37h2.56v8.67c0,1.39-0.13,2.83-1.26,3.97c-0.63,0.63-1.72,1.28-3.59,1.28
		c-1.76,0-2.81-0.52-3.4-1.05c-0.71-0.61-1.26-1.68-1.47-2.71h2.77c0.1,0.42,0.34,0.84,0.63,1.09c0.5,0.46,1.2,0.48,1.55,0.48
		c0.74,0,1.22-0.25,1.55-0.57c0.59-0.57,0.65-1.28,0.65-2.02v-1.28c-0.88,1.34-2.1,1.51-2.79,1.51c-1.22,0-2.27-0.38-3.15-1.24
		c-0.67-0.67-1.45-1.85-1.45-3.61c0-1.43,0.53-2.75,1.41-3.61c0.8-0.78,1.91-1.22,3.13-1.22c1.7,0,2.5,0.92,2.86,1.47V246.37z
		 M618.83,248.97c-0.42,0.38-0.82,0.99-0.82,1.93c0,0.8,0.29,1.39,0.67,1.78c0.54,0.59,1.24,0.8,1.85,0.8c0.63,0,1.26-0.23,1.7-0.63
		c0.52-0.48,0.82-1.22,0.82-1.95c0-0.86-0.38-1.45-0.74-1.83c-0.5-0.52-1.09-0.73-1.78-0.73
		C619.71,248.34,619.14,248.68,618.83,248.97z"/>
	<path class="st0" d="M627.75,246.37h2.56v1.18c0.48-0.67,1.34-1.47,2.81-1.47c0.8,0,1.97,0.23,2.69,1.11
		c0.63,0.78,0.71,1.68,0.71,2.56v5.71h-2.56v-4.96c0-0.5-0.02-1.3-0.48-1.78c-0.4-0.42-0.94-0.46-1.2-0.46
		c-0.67,0-1.2,0.23-1.58,0.8c-0.38,0.59-0.4,1.24-0.4,1.76v4.64h-2.56V246.37z"/>
	<path class="st0" d="M647.89,252.92c-0.27,0.67-1.3,2.83-4.47,2.83c-1.47,0-2.58-0.42-3.48-1.28c-1.01-0.94-1.43-2.12-1.43-3.55
		c0-1.81,0.73-2.92,1.38-3.57c1.07-1.05,2.33-1.28,3.42-1.28c1.85,0,2.92,0.73,3.55,1.49c0.97,1.15,1.09,2.58,1.09,3.57v0.21h-6.8
		c0,0.55,0.15,1.13,0.44,1.53c0.27,0.38,0.84,0.86,1.83,0.86c0.97,0,1.7-0.46,2.12-1.2L647.89,252.92z M645.54,249.71
		c-0.21-1.24-1.22-1.83-2.16-1.83c-0.95,0-1.93,0.61-2.14,1.83H645.54z"/>
	<path class="st0" d="M649.93,246.37h2.56v1.36c0.4-0.78,0.95-1.15,1.13-1.26c0.4-0.25,0.9-0.4,1.51-0.4c0.44,0,0.8,0.1,1.09,0.21
		l-0.34,2.39c-0.34-0.23-0.67-0.34-1.2-0.34c-0.48,0-1.2,0.1-1.7,0.73c-0.48,0.61-0.5,1.39-0.5,2.02v4.37h-2.56V246.37z"/>
	<path class="st0" d="M671.77,239.52l1.85,0.84l-11.02,19.51l-1.85-0.84L671.77,239.52z"/>
	<path class="st0" d="M684.09,241.45v14h-2.73v-14H684.09z"/>
	<path class="st0" d="M689.47,240.15v15.31h-2.56v-15.31H689.47z"/>
	<path class="st0" d="M694.47,240.15v15.31h-2.56v-15.31H694.47z"/>
	<path class="st0" d="M699.47,246.37v5.14c0,0.48,0.04,1.13,0.54,1.6c0.32,0.27,0.82,0.46,1.3,0.46c0.48,0,0.99-0.19,1.3-0.46
		c0.5-0.46,0.55-1.11,0.55-1.6v-5.14h2.56v5.56c0,0.82-0.1,1.91-1.11,2.79c-0.84,0.73-2.18,1.03-3.3,1.03
		c-1.11,0-2.46-0.29-3.3-1.03c-1.01-0.88-1.11-1.97-1.11-2.79v-5.56H699.47z"/>
	<path class="st0" d="M713.11,248.53c-0.61-0.57-1.22-0.61-1.49-0.61c-0.61,0-0.99,0.29-0.99,0.73c0,0.23,0.1,0.59,0.82,0.82
		l0.61,0.19c0.71,0.23,1.78,0.59,2.31,1.3c0.27,0.38,0.46,0.92,0.46,1.51c0,0.82-0.27,1.64-1.01,2.31
		c-0.74,0.67-1.62,0.97-2.73,0.97c-1.89,0-2.96-0.9-3.53-1.51l1.34-1.55c0.5,0.59,1.26,1.05,2.02,1.05c0.71,0,1.26-0.36,1.26-0.99
		c0-0.57-0.46-0.8-0.8-0.92l-0.59-0.21c-0.65-0.23-1.41-0.52-1.95-1.09c-0.42-0.44-0.69-1.01-0.69-1.74c0-0.88,0.42-1.62,0.95-2.06
		c0.71-0.57,1.64-0.65,2.37-0.65c0.67,0,1.74,0.08,2.9,0.97L713.11,248.53z"/>
	<path class="st0" d="M719.2,248.55v6.91h-2.56v-6.91h-1.01v-2.18h1.01v-3.11h2.56v3.11h1.76v2.18H719.2z"/>
	<path class="st0" d="M722.31,246.37h2.56v1.36c0.4-0.78,0.94-1.15,1.13-1.26c0.4-0.25,0.9-0.4,1.51-0.4c0.44,0,0.8,0.1,1.09,0.21
		l-0.34,2.39c-0.34-0.23-0.67-0.34-1.2-0.34c-0.48,0-1.2,0.1-1.7,0.73c-0.48,0.61-0.5,1.39-0.5,2.02v4.37h-2.56V246.37z"/>
	<path class="st0" d="M736.63,246.37h2.56v9.09h-2.56v-1.18c-0.92,1.32-2.14,1.47-2.79,1.47c-2.79,0-4.64-2.18-4.64-4.85
		c0-2.69,1.83-4.83,4.51-4.83c0.69,0,2.06,0.13,2.92,1.47V246.37z M731.85,250.9c0,1.45,1.05,2.58,2.52,2.58s2.52-1.13,2.52-2.58
		s-1.05-2.56-2.52-2.56S731.85,249.45,731.85,250.9z"/>
	<path class="st0" d="M744.19,248.55v6.91h-2.56v-6.91h-1.01v-2.18h1.01v-3.11h2.56v3.11h1.76v2.18H744.19z"/>
	<path class="st0" d="M755.72,247.35c0.9,0.82,1.53,2.08,1.53,3.57c0,1.47-0.63,2.73-1.53,3.55c-0.78,0.71-1.95,1.28-3.67,1.28
		s-2.9-0.57-3.67-1.28c-0.9-0.82-1.53-2.08-1.53-3.55c0-1.49,0.63-2.75,1.53-3.57c0.78-0.71,1.95-1.28,3.67-1.28
		S754.94,246.64,755.72,247.35z M754.61,250.92c0-1.43-1.09-2.58-2.56-2.58s-2.56,1.15-2.56,2.58c0,1.39,1.07,2.56,2.56,2.56
		S754.61,252.31,754.61,250.92z"/>
	<path class="st0" d="M759.23,246.37h2.56v1.36c0.4-0.78,0.95-1.15,1.13-1.26c0.4-0.25,0.9-0.4,1.51-0.4c0.44,0,0.8,0.1,1.09,0.21
		l-0.34,2.39c-0.34-0.23-0.67-0.34-1.2-0.34c-0.48,0-1.2,0.1-1.7,0.73c-0.48,0.61-0.5,1.39-0.5,2.02v4.37h-2.56V246.37z"/>
	<path class="st0" d="M781.07,239.52l1.85,0.84l-11.02,19.51l-1.85-0.84L781.07,239.52z"/>
	<path class="st0" d="M795.94,254.96c-0.84,0.44-1.95,0.82-3.46,0.82c-2.46,0-3.95-0.84-5.12-1.95c-1.62-1.55-2.25-3.3-2.25-5.35
		c0-2.54,1.05-4.37,2.25-5.48c1.41-1.32,3.15-1.85,5.14-1.85c0.99,0,2.16,0.17,3.44,0.86v3.19c-1.28-1.47-2.88-1.57-3.38-1.57
		c-2.81,0-4.64,2.31-4.64,4.89c0,3.11,2.39,4.79,4.75,4.79c1.3,0,2.46-0.57,3.28-1.53V254.96z"/>
	<path class="st0" d="M806.5,247.35c0.9,0.82,1.53,2.08,1.53,3.57c0,1.47-0.63,2.73-1.53,3.55c-0.78,0.71-1.95,1.28-3.67,1.28
		s-2.9-0.57-3.67-1.28c-0.9-0.82-1.53-2.08-1.53-3.55c0-1.49,0.63-2.75,1.53-3.57c0.78-0.71,1.95-1.28,3.67-1.28
		S805.72,246.64,806.5,247.35z M805.39,250.92c0-1.43-1.09-2.58-2.56-2.58s-2.56,1.15-2.56,2.58c0,1.39,1.07,2.56,2.56,2.56
		S805.39,252.31,805.39,250.92z"/>
	<path class="st0" d="M818.43,247.35c0.9,0.82,1.53,2.08,1.53,3.57c0,1.47-0.63,2.73-1.53,3.55c-0.78,0.71-1.95,1.28-3.67,1.28
		s-2.9-0.57-3.67-1.28c-0.9-0.82-1.53-2.08-1.53-3.55c0-1.49,0.63-2.75,1.53-3.57c0.78-0.71,1.95-1.28,3.67-1.28
		S817.65,246.64,818.43,247.35z M817.31,250.92c0-1.43-1.09-2.58-2.56-2.58s-2.56,1.15-2.56,2.58c0,1.39,1.07,2.56,2.56,2.56
		S817.31,252.31,817.31,250.92z"/>
	<path class="st0" d="M824.5,240.15v15.31h-2.56v-15.31H824.5z"/>
	<path class="st0" d="M836.78,248.53c-0.61-0.57-1.22-0.61-1.49-0.61c-0.61,0-0.99,0.29-0.99,0.73c0,0.23,0.1,0.59,0.82,0.82
		l0.61,0.19c0.71,0.23,1.78,0.59,2.31,1.3c0.27,0.38,0.46,0.92,0.46,1.51c0,0.82-0.27,1.64-1.01,2.31s-1.62,0.97-2.73,0.97
		c-1.89,0-2.96-0.9-3.53-1.51l1.34-1.55c0.5,0.59,1.26,1.05,2.02,1.05c0.71,0,1.26-0.36,1.26-0.99c0-0.57-0.46-0.8-0.8-0.92
		l-0.59-0.21c-0.65-0.23-1.41-0.52-1.95-1.09c-0.42-0.44-0.69-1.01-0.69-1.74c0-0.88,0.42-1.62,0.95-2.06
		c0.71-0.57,1.64-0.65,2.37-0.65c0.67,0,1.74,0.08,2.9,0.97L836.78,248.53z"/>
	<path class="st0" d="M842.87,248.55v6.91h-2.56v-6.91h-1.01v-2.18h1.01v-3.11h2.56v3.11h1.76v2.18H842.87z"/>
	<path class="st0" d="M848.54,246.37v5.14c0,0.48,0.04,1.13,0.55,1.6c0.31,0.27,0.82,0.46,1.3,0.46c0.48,0,0.99-0.19,1.3-0.46
		c0.5-0.46,0.54-1.11,0.54-1.6v-5.14h2.56v5.56c0,0.82-0.11,1.91-1.11,2.79c-0.84,0.73-2.18,1.03-3.3,1.03
		c-1.11,0-2.46-0.29-3.3-1.03c-1.01-0.88-1.11-1.97-1.11-2.79v-5.56H848.54z"/>
	<path class="st0" d="M859.84,248.55v6.91h-2.56v-6.91h-0.96v-2.18h0.96v-2.5c0-0.84,0.06-2.27,1.2-3.21
		c0.55-0.46,1.3-0.76,2.25-0.76c0.57,0,1.03,0.1,1.47,0.31v2.33c-0.36-0.27-0.71-0.38-1.16-0.38c-0.34,0-0.67,0.08-0.92,0.46
		c-0.21,0.34-0.27,0.82-0.27,1.57v2.16h2.35v2.18H859.84z"/>
	<path class="st0" d="M866.81,248.55v6.91h-2.56v-6.91h-0.97v-2.18h0.97v-2.5c0-0.84,0.06-2.27,1.2-3.21
		c0.55-0.46,1.3-0.76,2.25-0.76c0.57,0,1.03,0.1,1.47,0.31v2.33c-0.36-0.27-0.71-0.38-1.15-0.38c-0.34,0-0.67,0.08-0.92,0.46
		c-0.21,0.34-0.27,0.82-0.27,1.57v2.16h2.35v2.18H866.81z"/>
	<path class="st0" d="M882.07,249.14c-0.54-0.5-1.22-0.8-2.1-0.8c-1.7,0-2.56,1.24-2.56,2.56c0,1.49,1.11,2.58,2.64,2.58
		c0.57,0,1.32-0.17,2.02-0.8v2.5c-0.5,0.25-1.3,0.57-2.35,0.57c-1.43,0-2.69-0.55-3.51-1.32c-0.69-0.65-1.45-1.78-1.45-3.49
		c0-1.6,0.65-2.88,1.58-3.7c1.11-0.99,2.39-1.18,3.28-1.18c0.94,0,1.72,0.19,2.46,0.55V249.14z"/>
	<path class="st0" d="M884.01,246.37h2.56v1.36c0.4-0.78,0.94-1.15,1.13-1.26c0.4-0.25,0.9-0.4,1.51-0.4c0.44,0,0.8,0.1,1.09,0.21
		l-0.34,2.39c-0.34-0.23-0.67-0.34-1.2-0.34c-0.48,0-1.2,0.1-1.7,0.73c-0.48,0.61-0.5,1.39-0.5,2.02v4.37h-2.56V246.37z"/>
	<path class="st0" d="M900.05,252.92c-0.27,0.67-1.3,2.83-4.47,2.83c-1.47,0-2.58-0.42-3.49-1.28c-1.01-0.94-1.43-2.12-1.43-3.55
		c0-1.81,0.74-2.92,1.39-3.57c1.07-1.05,2.33-1.28,3.42-1.28c1.85,0,2.92,0.73,3.55,1.49c0.96,1.15,1.09,2.58,1.09,3.57v0.21h-6.8
		c0,0.55,0.15,1.13,0.44,1.53c0.27,0.38,0.84,0.86,1.83,0.86c0.96,0,1.7-0.46,2.12-1.2L900.05,252.92z M897.7,249.71
		c-0.21-1.24-1.22-1.83-2.16-1.83c-0.94,0-1.93,0.61-2.14,1.83H897.7z"/>
	<path class="st0" d="M909.27,246.37h2.56v9.09h-2.56v-1.18c-0.92,1.32-2.14,1.47-2.79,1.47c-2.79,0-4.64-2.18-4.64-4.85
		c0-2.69,1.83-4.83,4.51-4.83c0.69,0,2.06,0.13,2.92,1.47V246.37z M904.48,250.9c0,1.45,1.05,2.58,2.52,2.58
		c1.47,0,2.52-1.13,2.52-2.58s-1.05-2.56-2.52-2.56C905.53,248.34,904.48,249.45,904.48,250.9z"/>
	<path class="st0" d="M916.83,248.55v6.91h-2.56v-6.91h-1.01v-2.18h1.01v-3.11h2.56v3.11h1.76v2.18H916.83z"/>
	<path class="st0" d="M928.36,247.35c0.9,0.82,1.53,2.08,1.53,3.57c0,1.47-0.63,2.73-1.53,3.55c-0.78,0.71-1.95,1.28-3.67,1.28
		c-1.72,0-2.9-0.57-3.67-1.28c-0.9-0.82-1.53-2.08-1.53-3.55c0-1.49,0.63-2.75,1.53-3.57c0.78-0.71,1.95-1.28,3.67-1.28
		C926.4,246.07,927.58,246.64,928.36,247.35z M927.24,250.92c0-1.43-1.09-2.58-2.56-2.58c-1.47,0-2.56,1.15-2.56,2.58
		c0,1.39,1.07,2.56,2.56,2.56C926.17,253.49,927.24,252.31,927.24,250.92z"/>
	<path class="st0" d="M931.87,246.37h2.56v1.36c0.4-0.78,0.94-1.15,1.13-1.26c0.4-0.25,0.9-0.4,1.51-0.4c0.44,0,0.8,0.1,1.09,0.21
		l-0.34,2.39c-0.34-0.23-0.67-0.34-1.2-0.34c-0.48,0-1.2,0.1-1.7,0.73c-0.48,0.61-0.5,1.39-0.5,2.02v4.37h-2.56V246.37z"/>
</g>
</svg>
